<svg width="95" height="95" viewBox="0 0 95 95" fill="none" xmlns="http://www.w3.org/2000/svg">
<path d="M83.2437 81.0415C80.8039 83.5563 78.6206 85.0347 76.9489 86.151C60.6467 97.0365 42.0112 93.8987 36.2495 92.8269C26.9536 91.0964 19.1068 89.8758 12.3648 83.785C-2.95437 69.9441 -2.20957 41.0719 9.49655 23.1865C10.8846 21.0657 22.5728 3.74038 41.2488 1.29874C41.7057 1.23913 42.0465 1.20506 42.3448 1.17343C45.2342 0.867637 63.1372 -0.746874 77.7355 11.4836C79.8251 13.2344 83.188 16.3923 86.3067 21.2084C97.7092 38.819 97.7453 66.0939 83.2437 81.0415Z" fill="#F4F7FA"/>
<path d="M60.7625 82.3248C59.4318 81.8834 58.4374 80.7545 58.1572 79.3665L56.2203 69.7827L39.6556 70.3705L37.6169 80.3551C37.3314 81.7534 38.4744 83.156 39.7907 83.6713L46.7208 86.3826C48.0098 86.8873 49.3954 87.0881 50.7727 86.9703L65.419 85.7171C65.8469 85.6802 66.1906 85.3438 66.2403 84.9121C66.2902 84.4804 66.5905 83.9955 66.1823 83.8601L60.7625 82.3248Z" fill="#97A6B7"/>
<path d="M60.9265 81.7423C59.5971 81.3065 58.6037 80.1914 58.3234 78.8208L56.3891 69.3575L40.2282 69.9386L38.1915 79.7976C37.9064 81.1785 38.6611 82.5631 39.9762 83.0715L46.8998 85.7489C48.1872 86.2471 49.5712 86.4455 50.947 86.3293L65.5786 85.0919C66.006 85.0554 66.3491 84.7231 66.3992 84.2968C66.4489 83.8702 66.1918 83.4681 65.7838 83.3345L60.9265 81.7423Z" fill="url(#paint0_linear_1_1787)"/>
<path d="M5.80784 76.1525C4.01164 76.2596 2.54211 75.094 2.54211 73.5543V18.0473C2.54211 16.5072 4.01184 15.3179 5.80784 15.3958L88.8814 18.9953C90.2004 19.0523 91.2682 20.1643 91.2682 21.4741V68.6824C91.2682 69.9919 90.2004 71.1212 88.8814 71.1999L5.80784 76.1525Z" fill="url(#paint1_linear_1_1787)"/>
<path d="M6.5545 76.1525C4.7583 76.2595 3.28857 75.094 3.28857 73.5543V18.0473C3.28857 16.5072 4.7583 15.3179 6.5545 15.3958L89.628 18.9953C90.9471 19.0523 92.0149 20.1643 92.0149 21.474V68.6824C92.0149 69.9919 90.9471 71.1212 89.628 71.1998L6.5545 76.1525Z" fill="url(#paint2_linear_1_1787)"/>
<path opacity="0.3" d="M89.628 20.1065L6.55452 16.6889C5.59417 16.6496 4.81348 17.2839 4.81348 18.1063V61.2759V73.4706C4.81348 74.2928 5.59417 74.9147 6.55452 74.8598L89.628 70.0894C90.3347 70.0489 90.9067 69.4462 90.9067 68.7436V57.9516V21.4315C90.9065 20.7286 90.3347 20.1355 89.628 20.1065Z" fill="#D8DEE8"/>
<path d="M6.55451 70.144C6.18059 70.1624 5.87622 69.9173 5.87622 69.5973V18.1473C5.87622 17.8273 6.18059 17.5791 6.55451 17.5939L89.628 20.884C89.9034 20.8949 90.1281 21.1269 90.1281 21.401V65.5152C90.1281 65.7896 89.9036 66.0236 89.628 66.0373L6.55451 70.144Z" fill="url(#paint3_linear_1_1787)"/>
<path opacity="0.6" d="M80.9552 67.7642C73.9665 63.4412 78.8477 51.149 70.9995 44.9731C63.0865 38.7464 51.9512 46.3832 46.4085 39.9351C42.2811 35.1337 47.1105 29.3363 43.1697 24.8211C36.9897 17.7399 21.1694 27.4789 13.9011 20.5027C12.8689 19.5124 11.8277 18.0098 11.2352 15.5988L6.55405 15.396C4.75806 15.3181 3.28833 16.5074 3.28833 18.0475V73.5543C3.28833 75.0942 4.75806 76.2597 6.55405 76.1525L89.6278 71.1998C90.9468 71.1212 92.0147 69.9919 92.0147 68.6824V67.8429C86.4985 69.7147 83.1265 69.1072 80.9552 67.7642Z" fill="white"/>
<path d="M11.1669 65.9479L31.1621 65.1135V54.6307L11.1669 55.1157V65.9479Z" fill="#F4F7FA"/>
<g opacity="0.7">
<path opacity="0.7" d="M64.7323 47.8973L67.7701 47.8555V25.6453L64.7323 25.5675V47.8973Z" fill="#F4F7FA"/>
<path opacity="0.7" d="M59.2506 47.9731L62.3468 47.9303V36.7181L59.2506 36.6999V47.9731Z" fill="#F4F7FA"/>
<path opacity="0.7" d="M53.661 48.0499L56.8185 48.0065V23.2191L53.661 23.1266V48.0499Z" fill="#F4F7FA"/>
<path opacity="0.7" d="M47.9612 48.1287L51.1809 48.0843V26.7667L47.9612 26.6929V48.1287Z" fill="#F4F7FA"/>
<path opacity="0.7" d="M42.1477 48.2089L45.4317 48.1635V42.3909L42.1477 42.4038V48.2089Z" fill="#F4F7FA"/>
<path opacity="0.7" d="M36.2174 48.2908L39.5677 48.2444V34.5401L36.2174 34.5089V48.2908Z" fill="#F4F7FA"/>
<path opacity="0.7" d="M30.166 48.3742L33.5848 48.3272V28.3761L30.166 28.309V48.3742Z" fill="#F4F7FA"/>
<path opacity="0.7" d="M23.9905 48.4594L27.4797 48.4113V33.713L23.9905 33.6763V48.4594Z" fill="#F4F7FA"/>
<path opacity="0.7" d="M17.687 48.5464L21.2486 48.4973V25.4626L17.687 25.3773V48.5464Z" fill="#F4F7FA"/>
<path opacity="0.7" d="M11.2502 48.6352L14.887 48.5851V22.7146L11.2502 22.6122V48.6352Z" fill="#F4F7FA"/>
</g>
<path d="M70.5601 63.4695L85.5027 62.8458V61.3339L70.5601 61.9155V63.4695Z" fill="#F4F7FA"/>
<path d="M70.5601 43.4134L85.5027 43.3246V41.8125L70.5601 41.8598V43.4134Z" fill="#F4F7FA"/>
<path d="M70.5601 40.7537L85.5027 40.7358V39.2237L70.5601 39.2002V40.7537Z" fill="#F4F7FA"/>
<path d="M70.5601 61.322L72.9952 61.2297V58.8467L70.5601 58.9288V61.322Z" fill="#F4F7FA"/>
<path d="M16.6584 59.3491C17.9284 59.3972 18.117 58.6617 19.3677 58.5903C21.4888 58.4697 22.0081 60.534 24.0523 60.5025C25.7205 60.4768 26.1405 59.0831 27.7919 59.2378C29.0197 59.3524 29.2614 60.1698 30.4584 60.287C30.6973 60.3105 30.9325 60.3014 31.1619 60.2679V65.1135L11.1666 65.9479V57.3743C12.2385 57.4513 13.021 57.6943 13.5813 57.9396C14.9296 58.5307 15.3769 59.3009 16.6584 59.3491Z" fill="#F4F7FA"/>
<path d="M70.5601 37.0927L85.5027 37.1722V24.0619L70.5601 23.6231V37.0927Z" fill="#F4F7FA"/>
<path d="M11.2506 53.9264L67.7701 52.6637V50.2945L11.2506 51.3191V53.9264Z" fill="#F4F7FA"/>
<path d="M33.5848 65.0125L67.77 63.5861V53.5801L33.5848 54.3995V65.0125Z" fill="#F4F7FA"/>
<path d="M81.8995 72.9743C81.8995 72.9743 82.7033 73.1873 82.7889 74.5128C82.6579 74.51 82.3517 74.539 82.3517 74.539C82.3517 74.539 82.4085 73.5671 81.8358 73.4115C81.8818 73.2955 81.8995 72.9743 81.8995 72.9743Z" fill="url(#paint4_linear_1_1787)"/>
<path d="M78.9172 73.0603C78.9379 73.304 78.9582 73.5478 78.9787 73.7915C79.3834 73.6581 79.8245 73.5058 80.2975 73.4555C80.9111 73.3898 81.4712 73.4255 81.9684 73.5141C81.9903 73.4823 82.0376 73.406 82.0593 73.2844C82.0939 73.0893 82.0357 72.932 82.0246 72.904C81.7715 72.8289 81.4968 72.7693 81.2013 72.7347C80.3531 72.6349 79.5823 72.8227 78.9172 73.0603Z" fill="url(#paint5_linear_1_1787)"/>
<path d="M78.8791 73.2746C78.8803 73.1858 78.887 73.0753 78.9172 73.0603C78.9458 73.0463 78.9839 73.1244 79.0004 73.168C79.007 73.1858 79.0223 73.2302 79.0314 73.3724C79.044 73.5559 79.0295 73.6469 79.0168 73.7039C79.0089 73.7376 78.9967 73.7893 78.9787 73.7917C78.9645 73.7935 78.9515 73.7621 78.9324 73.7013C78.9069 73.6189 78.8763 73.4811 78.8791 73.2746Z" fill="url(#paint6_linear_1_1787)"/>
<path d="M78.1302 74.8677C78.3014 74.8894 78.7151 74.959 78.7151 74.959C78.7151 74.959 78.4454 74.1138 78.9537 73.6867C78.9669 73.6215 78.9805 73.5174 78.9645 73.3943C78.9519 73.2992 78.926 73.2238 78.9039 73.1721C78.6875 73.3055 78.217 73.7409 78.1302 74.8677Z" fill="url(#paint7_linear_1_1787)"/>
<path d="M74.5654 75.3138C74.5654 75.3138 74.5865 74.8555 75.311 74.8115C75.4252 74.8879 75.4307 75.2606 75.4307 75.2606L74.5654 75.3138Z" fill="url(#paint8_linear_1_1787)"/>
<path d="M73.919 84.3653L75.9028 85.3942L77.0939 80.8893L75.1271 75.1144L74.5652 75.3136L73.7091 83.9146C73.69 84.11 73.7736 84.2899 73.919 84.3653Z" fill="url(#paint9_linear_1_1787)"/>
<path opacity="0.3" d="M77.0938 80.8895L75.1271 75.1146L74.5652 75.3138C74.7039 75.829 74.7696 76.678 74.801 77.1509C74.9334 79.1615 75.3739 79.6905 75.1609 81.1144C74.9833 82.2996 74.5956 82.4903 74.6295 83.2764C74.6664 84.1323 75.1654 84.8074 75.7573 85.3188L75.9027 85.3944L77.0938 80.8895Z" fill="url(#paint10_linear_1_1787)"/>
<path d="M75.1271 75.1145L85.6776 74.4725L87.2815 83.4451L75.9027 85.3944L75.1271 75.1145Z" fill="url(#paint11_linear_1_1787)"/>
<g opacity="0.2">
<path opacity="0.2" d="M85.6776 74.4725L82.1953 74.684C82.1302 74.877 82.0312 75.1445 81.8865 75.4486C80.3028 78.7801 76.622 79.4581 76.6895 79.9896C76.7895 80.7843 84.8738 79.0467 85.0751 80.1074C85.1723 80.6188 83.4995 81.9367 81.7342 82.5331C79.5961 83.2555 78.0075 82.7026 76.9432 84.0225C76.5814 84.4712 76.4214 84.9739 76.3431 85.3117L87.2813 83.4453L85.6776 74.4725Z" fill="url(#paint12_linear_1_1787)"/>
</g>
<path d="M75.3109 74.8115C75.1886 74.8188 75.0173 74.8137 74.8309 74.935C74.7906 74.9605 74.7555 74.9887 74.7249 75.0167L74.8106 74.9806C74.9493 74.9317 75.1393 74.9743 75.2105 75.109C75.2979 75.2742 75.3293 75.6676 75.3486 75.8623C75.4027 76.4156 75.7359 79.8533 75.7359 79.8533C75.7604 80.1433 75.9804 80.3473 76.2404 80.3219L86.0139 79.068C86.0858 79.0607 86.1574 79.0319 86.2166 78.9802C86.3407 78.8727 86.3969 78.6975 86.3679 78.5375L85.8871 74.5716C85.8464 74.3441 85.6716 74.1894 85.4688 74.2019L75.3109 74.8115Z" fill="url(#paint13_linear_1_1787)"/>
<path d="M75.4194 74.805C75.2969 74.8123 75.1517 74.8044 74.9897 74.8577C74.9457 74.8719 74.8759 74.8977 74.8451 74.9261C74.8451 74.9261 75.1886 74.823 75.3188 75.1029C75.3977 75.2738 75.437 75.6615 75.4563 75.8558C75.5106 76.4088 75.8432 79.8456 75.8432 79.8456C75.8681 80.1352 76.0877 80.3398 76.3477 80.3143L86.2223 79.3503C86.2943 79.3432 86.3655 79.3142 86.4251 79.2627C86.5486 79.1552 86.6047 78.98 86.5759 78.8198L85.9887 74.5655C85.9477 74.3384 85.7732 74.1837 85.5704 74.1959L75.4194 74.805Z" fill="url(#paint14_linear_1_1787)"/>
<path opacity="0.1" d="M86.5761 78.8198L85.9889 74.5655C85.9479 74.3384 85.7734 74.1837 85.5706 74.1959L75.4194 74.8052C75.2969 74.8125 75.1517 74.8046 74.9897 74.8579C74.9457 74.8721 74.8759 74.8979 74.8451 74.9263C74.8451 74.9263 75.1886 74.8233 75.3188 75.1031C75.3314 75.1299 75.3423 75.1627 75.353 75.1988C76.3438 75.1775 77.3283 75.0893 78.3075 75.0931C80.2272 75.0976 82.1475 74.9794 83.9196 75.6443C84.4827 75.8554 84.868 76.7178 84.7157 77.1384C84.6058 77.4415 84.2302 77.4446 84.0992 77.8418C83.9611 78.2609 84.2921 78.515 84.1534 78.8119C84.0078 79.1229 83.5653 79.0126 82.8459 79.2809C82.4484 79.4295 82.1428 79.6279 81.9516 79.7674L86.2227 79.3505C86.2947 79.3434 86.3659 79.3144 86.4255 79.2629C86.5488 79.155 86.6049 78.98 86.5761 78.8198Z" fill="url(#paint15_linear_1_1787)"/>
<path d="M81.9307 80.4827L80.6944 80.8819L80.5634 80.9032C80.431 80.9243 80.3175 80.8173 80.3114 80.665L80.2568 79.2232C80.2509 79.0703 80.3556 78.9359 80.4888 78.9239L80.6202 78.9122L81.864 78.9825C81.9822 78.9718 82.0818 78.9008 82.0871 79.043L82.1378 80.3884C82.1432 80.5307 82.049 80.4632 81.9307 80.4827Z" fill="url(#paint16_linear_1_1787)"/>
<path d="M82.0242 80.6748L80.6545 80.8962C80.5225 80.9179 80.4083 80.8109 80.4028 80.6584L80.3479 79.2168C80.3424 79.0643 80.4472 78.9297 80.5796 78.9181L81.9534 78.7971C82.0717 78.7863 82.1718 78.8944 82.1773 79.0372L82.228 80.3816C82.2333 80.5242 82.1418 80.6555 82.0242 80.6748Z" fill="url(#paint17_linear_1_1787)"/>
<path d="M39.7444 7.64306V29.9518C39.7444 30.6925 40.3442 31.2927 41.0825 31.2927H83.7864C84.4294 31.2927 84.9497 30.7345 84.9497 30.0455V9.29102L39.7444 7.64306Z" fill="url(#paint18_linear_1_1787)"/>
<path d="M83.7864 6.60907L41.0825 4.8658C40.3442 4.83558 39.7444 5.41147 39.7444 6.15201V8.43792L84.9497 10.0305V7.90401C84.9499 7.21517 84.4294 6.63543 83.7864 6.60907Z" fill="url(#paint19_linear_1_1787)"/>
<path d="M42.811 6.71656C42.811 7.04424 42.5466 7.29994 42.2199 7.28778C41.893 7.27561 41.6278 6.99983 41.6278 6.67134C41.6278 6.34304 41.893 6.08714 42.2199 6.09971C42.5466 6.11269 42.811 6.38867 42.811 6.71656Z" fill="white"/>
<path d="M48.9284 28.4028L45.5791 28.388V11.7947L48.9284 11.8963V28.4028Z" fill="white"/>
<path d="M48.9284 28.4028L45.5791 28.388V20.5099L48.9284 20.566V28.4028Z" fill="url(#paint20_linear_1_1787)"/>
<path d="M53.5304 28.4236L50.2294 28.4088V11.9358L53.5304 12.036V28.4236Z" fill="white"/>
<path d="M53.5304 28.4236L50.2294 28.4088V24.4983L53.5304 24.5333V28.4236Z" fill="url(#paint21_linear_1_1787)"/>
<path d="M58.0671 28.4441L54.8127 28.4297V12.0747L58.0671 12.1737V28.4441Z" fill="white"/>
<path d="M58.0671 28.4441L54.8127 28.4297V26.391L58.0671 26.4165V28.4441Z" fill="url(#paint22_linear_1_1787)"/>
<path d="M62.5387 28.4646L59.3312 28.45V12.2118L62.5387 12.3091V28.4646Z" fill="white"/>
<path d="M62.5387 28.4646L59.3312 28.45V15.7294L62.5387 15.8087V28.4646Z" fill="url(#paint23_linear_1_1787)"/>
<path d="M66.9484 28.4845L63.7853 28.4701V12.3469L66.9484 12.443V28.4845Z" fill="white"/>
<path d="M66.9484 28.4845L63.7853 28.4701V17.2747L66.9484 17.3459V28.4845Z" fill="url(#paint24_linear_1_1787)"/>
<path d="M71.2958 28.5039L68.1771 28.4899V12.4801L71.2958 12.5748V28.5039Z" fill="white"/>
<path d="M71.2958 28.5039L68.1771 28.4899V14.8082L71.2958 14.8911V28.5039Z" fill="url(#paint25_linear_1_1787)"/>
<path d="M75.5828 28.5234L72.5073 28.5096V12.6115L75.5828 12.7048V28.5234Z" fill="white"/>
<path d="M75.5828 28.5235L72.5073 28.5097V18.7443L75.5828 18.807V28.5235Z" fill="url(#paint26_linear_1_1787)"/>
<path d="M79.8105 28.5425L76.778 28.5289V12.7411L79.8105 12.8331V28.5425Z" fill="white"/>
<path d="M79.8105 28.5425L76.778 28.5289V23.0474L79.8105 23.0886V28.5425Z" fill="url(#paint27_linear_1_1787)"/>
<path d="M35.603 92.1221C35.603 92.1221 39.1983 93.7664 39.2565 94.0278C39.3147 94.289 36.9422 93.9345 35.9731 93.97C35.004 94.0051 34.2079 93.7172 34.2965 93.3071C34.3854 92.8967 34.7268 91.8654 34.7268 91.8654L35.603 92.1221Z" fill="url(#paint28_linear_1_1787)"/>
<path d="M35.7381 90.7954L35.5152 92.4151C35.5152 92.4151 34.945 92.6165 34.5628 92.3756L34.4038 90.5981L35.7381 90.7954Z" fill="url(#paint29_linear_1_1787)"/>
<path d="M18.7884 90.7935L18.3683 91.4641C18.2507 91.6517 18.2152 91.878 18.2709 92.0927C18.4157 92.6518 18.7059 93.7417 18.8324 94.0256C19.0052 94.4131 21.3337 94.6483 21.3337 94.6483C21.3337 94.6483 21.5419 94.3567 21.0591 94.0025C20.5765 93.6482 20.2659 93.5923 20.0963 93.0707C19.9272 92.5492 19.8167 91.0754 19.8167 91.0754L18.7884 90.7935Z" fill="url(#paint30_linear_1_1787)"/>
<path d="M20.5351 89.0894C20.3818 89.2115 19.6283 91.4802 19.6283 91.4802C19.6283 91.4802 19.3853 91.7888 18.9266 91.3309C18.4678 90.8731 18.7188 91.1255 18.7188 91.1255L18.8105 88.8923L20.5351 89.0894Z" fill="url(#paint31_linear_1_1787)"/>
<path d="M37.7963 58.2444C37.9745 63.0786 37.9697 68.3299 37.6781 73.9399C37.3496 80.2568 36.7064 86.094 35.9007 91.3854C35.6057 91.3939 35.2961 91.3952 34.9724 91.3854C34.7538 91.3787 34.5421 91.3672 34.3377 91.3526C33.9285 90.2541 33.4457 88.8097 33.0142 87.0849C32.5608 85.2711 32.2881 83.644 32.0952 82.0885C31.4153 76.6119 32.2287 76.1362 31.6759 72.0774C31.1866 68.4826 30.4783 68.3404 29.6591 63.2365C28.7701 57.6989 29.4435 56.8699 29.771 56.5706C31.1647 55.2972 34.429 56.1744 37.7963 58.2444Z" fill="url(#paint32_linear_1_1787)"/>
<path opacity="0.25" d="M29.771 56.5709C31.1004 55.3558 34.1317 56.1008 37.3309 57.968C33.6359 61.9406 33.2279 64.5228 33.6657 66.2002C34.1605 68.0959 35.6772 68.6448 35.6665 70.7162C35.6535 73.2613 33.3546 73.9304 33.3968 76.6239C33.4248 78.4049 34.4344 78.3891 34.6676 80.5896C34.9432 83.1931 33.6225 84.0867 34.0449 86.0133C34.2268 86.8425 34.7487 87.9265 36.2399 89.0452C36.1302 89.8352 36.0177 90.618 35.9009 91.3863C35.6063 91.3944 35.2964 91.3956 34.9728 91.3859C34.7542 91.3792 34.5423 91.3676 34.3381 91.353C33.9289 90.2546 33.4461 88.8102 33.0146 87.0854C32.5612 85.2715 32.2884 83.6445 32.0956 82.089C31.4157 76.6128 32.229 76.1366 31.6763 72.0779C31.187 68.483 30.4787 68.3409 29.6594 63.237C28.7701 57.6991 29.4437 56.8702 29.771 56.5709Z" fill="url(#paint33_linear_1_1787)"/>
<path d="M35.5138 58.1578C32.3294 62.7931 28.8928 68.5635 25.815 75.4732C23.4894 80.6945 21.7998 85.5984 20.5576 89.9693C20.3907 90.0462 19.9971 90.1995 19.4951 90.1315C18.8099 90.0397 18.4001 89.6011 18.293 89.4786C17.7992 86.3416 17.8609 83.6867 18.0357 81.7702C18.1476 80.5434 18.3451 78.5006 19.1335 75.9797C20.0164 73.1558 20.6191 72.9983 21.7692 70.0118C22.963 66.9117 22.6775 66.1367 23.8229 62.2557C24.2934 60.6617 25.0802 58.2894 26.3761 55.453C29.422 56.3549 32.4681 57.2561 35.5138 58.1578Z" fill="url(#paint34_linear_1_1787)"/>
<path d="M48.4498 51.6166C48.42 52.7447 46.5656 53.7379 45.0731 54.0427C41.5829 54.7552 37.5363 52.2195 35.6158 49.4141C35.2386 48.8633 34.8197 48.1952 34.7187 48.2469C34.4995 48.3592 36.4391 52.4008 37.4982 55.7324C38.2037 57.9512 37.7391 57.4041 38.1854 58.5141C38.3813 59.0016 38.6863 59.6434 38.4068 60.1505C38.3592 60.2371 38.2225 60.4506 37.8679 60.61C36.3259 61.3011 31.2924 61.1072 31.2924 61.1072C26.589 60.9257 23.9034 63.339 22.7013 61.9449C22.3779 61.5697 22.1605 60.9172 21.9535 60.2971C21.5664 59.1358 21.5177 58.2055 21.4999 57.9617C21.3354 55.7085 19.4819 49.1784 15.3833 43.83C14.5667 42.7642 13.9988 42.2037 13.9633 41.2134C13.8593 38.3057 18.4655 35.0962 22.3007 34.7273C23.3519 34.6262 25.234 34.6582 26.9988 34.8247C27.7041 34.8908 28.4549 34.9887 29.262 35.1299C31.2192 35.4721 32.5819 35.7106 33.9703 36.3459C39.5698 38.908 38.3478 44.6107 44.4082 48.5537C46.4916 49.9093 48.4816 50.4355 48.4498 51.6166Z" fill="white"/>
<path d="M25.5073 31.7108C25.5073 31.7108 25.2669 33.053 24.7133 34.0083C24.213 34.8719 22.1445 35.1813 21.7136 35.3316C21.2827 35.4816 22.3639 36.2323 23.5134 36.5042C24.6632 36.7766 28.026 36.9544 28.6845 36.5924C29.3433 36.2305 28.257 36.12 27.4658 35.7041C26.6747 35.2882 26.4101 33.5974 26.6551 32.8788C26.9 32.1601 25.5073 31.7108 25.5073 31.7108Z" fill="url(#paint35_linear_1_1787)"/>
<path d="M27.6932 31.3227C28.5274 30.7265 28.7586 29.1138 28.2952 28.7519C28.1628 28.6484 28.0363 28.6961 26.1533 29.4512C25.2185 29.8264 24.7584 30.0259 24.6069 30.439C24.5145 30.691 24.5295 31.0315 24.6317 31.2998C24.6842 31.4378 24.7868 31.6098 25.0145 31.9379C25.2167 32.2289 25.2031 32.2191 25.2653 32.3037C25.4142 32.5071 25.7015 32.8492 26.2281 33.2458C26.2575 33.0974 26.3036 32.9135 26.3812 32.7125C26.4108 32.6352 26.5313 32.3331 26.7219 32.0786C27.0502 31.6408 27.4225 31.5159 27.6932 31.3227Z" fill="url(#paint36_linear_1_1787)"/>
<path d="M25.5551 32.8561C25.5551 32.8561 26.101 33.6693 27.1122 33.5589C28.0174 33.46 28.0612 31.4182 27.4626 31.0117C27.2629 30.876 26.8727 30.833 26.5617 30.935C26.3777 30.9952 26.3183 31.0755 26.016 31.1682C25.7372 31.2536 25.6561 31.2256 25.5741 31.301C25.4715 31.3955 25.4032 31.6184 25.6072 32.206C25.4261 32.0381 25.2154 31.9799 25.0711 32.0558C25.0479 32.0679 24.9875 32.1131 24.9551 32.1788C24.8387 32.4173 25.0638 32.7051 25.5551 32.8561Z" fill="url(#paint37_linear_1_1787)"/>
<path opacity="0.15" d="M43.554 51.4432C41.0233 50.8732 40.0151 50.8919 38.7636 49.8837C36.6801 48.2051 36.3672 45.6501 35.1562 45.6811C34.5841 45.6959 34.1194 46.2805 33.7885 46.8523C34.0932 47.3297 34.398 47.807 34.703 48.2846C34.704 48.2665 34.708 48.2525 34.7184 48.247C34.8194 48.1953 35.2381 48.8635 35.6155 49.4142C37.536 52.2197 41.5826 54.7554 45.0728 54.0428C46.0737 53.8388 47.234 53.3244 47.9009 52.6678C46.1787 52.0856 44.7074 51.7032 43.554 51.4432Z" fill="url(#paint38_linear_1_1787)"/>
<path d="M16.9222 61.1716C15.389 61.3089 11.9382 61.371 9.49755 59.1133C5.4341 55.3544 7.4497 48.199 8.86427 45.1216C10.4859 41.5935 13.0668 39.6185 14.6353 38.4184C16.5814 36.9294 17.7692 36.0206 19.198 36.224C22.8936 36.7504 25.4531 44.3247 23.4243 46.4934C22.76 47.2031 22.1022 46.8014 20.1803 47.4132C19.5543 47.6125 14.8825 49.1005 14.069 52.5417C13.4994 54.9498 14.949 57.7701 17.5289 59.664C17.3268 60.1667 17.1244 60.6696 16.9222 61.1716Z" fill="white"/>
<path opacity="0.15" d="M23.4511 62.0158C23.6143 62.0984 23.8627 62.205 24.1776 62.26C25.1339 62.4269 25.8903 61.9801 26.4726 61.719C27.3263 61.3359 28.2003 61.2656 29.9478 61.1236C31.4042 61.006 31.6834 61.1804 33.585 61.126C34.7895 61.092 35.7683 60.9906 36.401 60.9119C35.4384 60.6554 34.6882 60.292 34.1064 59.9242C32.3708 58.8274 32.1139 57.7153 30.1705 56.9644C27.6455 55.9889 26.4321 57.2285 25.1805 56.2276C23.6907 55.0365 25.0094 52.9614 23.8949 49.3607C23.7055 48.7493 22.2685 44.1072 18.9707 43.5157C17.433 43.2399 15.402 43.829 14.6195 45.1322C14.0067 46.1518 14.5773 46.9122 13.8327 48.0378C13.0885 49.163 12.1984 48.8876 11.25 49.8263C9.74374 51.3163 9.51277 54.4583 10.8728 56.2353C11.5067 57.064 12.3312 57.3915 13.882 58.0083C14.8294 58.3851 15.71 58.6193 16.4686 58.7684C14.5694 56.9454 13.5837 54.5944 14.0694 52.5413C14.5763 50.3963 16.5826 49.0105 18.1736 48.2223C19.7658 51.2184 21.0668 54.6903 21.5001 57.9611C21.6534 59.1188 21.5448 59.4621 21.6528 59.7989C21.725 60.0227 21.8783 60.1742 22.7762 61.2272C23.051 61.5505 23.2828 61.8206 23.4511 62.0158Z" fill="url(#paint39_linear_1_1787)"/>
<path d="M17.9286 62.3774L17.75 61.852C17.4653 61.0139 17.9335 60.1207 18.7951 59.8585L52.5796 49.5667L53.6085 53.0559L19.9951 63.4097C19.1382 63.6731 18.2127 63.212 17.9286 62.3774Z" fill="url(#paint40_linear_1_1787)"/>
<path d="M73.5782 63.549C63.8994 66.6856 53.5272 61.201 50.5025 51.0334C47.4053 40.6214 53.2419 29.5763 63.4357 26.6411C73.4462 23.7587 83.5682 29.9089 86.1512 40.1134C88.6759 50.086 83.0896 60.466 73.5782 63.549ZM72.7971 60.7063C80.8285 58.1261 85.5359 49.3662 83.3802 40.9623C81.1819 32.3941 72.6641 27.2746 64.2802 29.7138C55.7676 32.1901 50.8838 41.4191 53.4432 50.1325C55.9528 58.6746 64.6469 63.3251 72.7971 60.7063Z" fill="url(#paint41_linear_1_1787)"/>
<path opacity="0.3" d="M52.5798 49.5667L48.2721 50.8793C47.9766 52.2527 47.4019 53.0401 46.8232 53.5195C44.6474 55.3232 41.742 53.356 37.6887 55.4708C35.6544 56.5323 36.0411 57.2078 34.1344 57.9483C30.9825 59.1725 29.5397 57.4768 26.7501 58.5909C23.9285 59.7183 23.6504 62.1539 22.0503 62.0669C21.3658 62.029 20.4845 61.5314 19.502 59.6431L18.7954 59.8587C17.9336 60.1209 17.4655 61.0141 17.7502 61.8522L17.9289 62.3776C18.2128 63.2122 19.1382 63.6735 19.9956 63.4099L53.6089 53.0561L52.5798 49.5667Z" fill="#D8DEE8"/>
<path d="M81.8192 44.8152C81.8192 49.4258 78.2145 53.0525 73.6063 52.9109C68.8113 52.7635 64.7784 48.6222 64.7784 43.6665C64.7784 38.7104 68.8113 35.1128 73.6063 35.6122C78.2145 36.0922 81.8192 40.2049 81.8192 44.8152Z" fill="url(#paint42_linear_1_1787)"/>
<path d="M83.0643 44.4178C83.0643 49.0281 79.4591 52.6548 74.8516 52.5137C70.0565 52.3663 66.0237 48.2247 66.0237 43.2691C66.0237 38.313 70.0565 34.7153 74.8516 35.2148C79.4589 35.6943 83.0643 39.8075 83.0643 44.4178Z" fill="url(#paint43_linear_1_1787)"/>
<path d="M82.7025 44.3935C82.7025 48.8008 79.253 52.262 74.8513 52.1197C70.2789 51.9716 66.4399 48.0191 66.4399 43.297C66.4399 38.575 70.2791 35.1403 74.8513 35.6088C79.2532 36.0599 82.7025 39.9861 82.7025 44.3935Z" fill="url(#paint44_linear_1_1787)"/>
<path d="M82.4438 44.3758C82.4438 48.638 79.1061 51.981 74.8516 51.838C70.4381 51.69 66.7365 47.8725 66.7365 43.3171C66.7365 38.7615 70.4381 35.4433 74.8516 35.8902C79.1061 36.3209 82.4438 40.1138 82.4438 44.3758Z" fill="url(#paint45_linear_1_1787)"/>
<path d="M74.8084 37.3401C75.0345 37.3618 75.2178 37.5656 75.2178 37.7955V38.5801C75.6702 38.6308 76.1236 38.7094 76.5781 38.8161C76.9126 38.8948 77.245 38.9885 77.5753 39.097C77.7732 39.162 77.9083 39.3618 77.8878 39.5678L77.7917 40.5519C77.7657 40.8131 77.5078 40.9661 77.2647 40.8579C77.0473 40.7607 76.8238 40.6776 76.5953 40.6087C76.1964 40.488 75.7759 40.4091 75.3334 40.3726L75.2176 40.3631V42.6103C76.3986 42.9406 77.2663 43.3851 77.8266 43.9443C78.3842 44.5008 78.662 45.1942 78.662 46.0266C78.662 46.927 78.3546 47.6481 77.7377 48.1917C77.1176 48.738 76.2479 49.0456 75.1231 49.1121V49.9782C75.1231 50.2081 74.94 50.3874 74.7133 50.3782L74.7058 50.378C74.4787 50.3691 74.2944 50.1747 74.2944 49.9437V49.0892L74.1123 49.0811C73.5851 49.0574 73.08 49.0036 72.5976 48.9195C72.2401 48.8574 71.8913 48.7771 71.5508 48.6786C71.345 48.6194 71.2037 48.4231 71.2227 48.2122L71.3359 46.9473C71.3602 46.6739 71.635 46.5151 71.8949 46.6175C72.1983 46.737 72.5055 46.8378 72.8155 46.9197C73.3 47.0472 73.7907 47.1293 74.2875 47.1654L74.2946 44.6656C73.1613 44.385 72.3125 43.9697 71.7548 43.4191C71.1945 42.8662 70.9137 42.1589 70.9137 41.2985C70.9137 40.4079 71.2183 39.7207 71.8258 39.2385C72.4299 38.7585 73.289 38.5198 74.397 38.5203V37.7181C74.397 37.4881 74.5813 37.3186 74.8084 37.3401ZM74.397 40.34C74.0466 40.3653 73.7739 40.4616 73.578 40.6287C73.3823 40.796 73.284 41.0209 73.284 41.3034C73.284 41.5708 73.3748 41.7943 73.5559 41.9737C73.737 42.153 74.0176 42.296 74.397 42.4028V40.34ZM75.1235 44.8666V47.1588C75.5046 47.1596 75.7968 47.0687 76.0003 46.8864C76.2039 46.7043 76.3055 46.447 76.3055 46.1147C76.3055 45.8115 76.2114 45.5603 76.0223 45.3601C75.8322 45.16 75.5332 44.9955 75.1235 44.8666Z" fill="url(#paint46_linear_1_1787)"/>
<path opacity="0.3" d="M73.4778 45.4197C73.7343 42.8862 76.0624 41.8137 75.7588 39.4834C75.5712 38.0471 74.4825 36.8365 73.2685 35.8916C69.5849 36.2777 66.7365 39.3279 66.7365 43.3171C66.7365 47.8725 70.4381 51.69 74.8516 51.838C75.2801 51.8526 75.699 51.8303 76.1058 51.7767C74.353 50.0327 73.2574 47.5963 73.4778 45.4197Z" fill="url(#paint47_linear_1_1787)"/>
<path opacity="0.3" d="M73.5944 62.103C65.1646 64.8157 56.1637 60.0117 53.5606 51.1723C50.9038 42.1489 55.9619 32.5892 64.7801 30.0285C73.4614 27.5076 82.2733 32.8145 84.5424 41.6819C86.7668 50.3735 81.8983 59.4308 73.5944 62.103Z" fill="white"/>
<path d="M74.2326 64.4238C64.5542 67.5609 54.1818 62.0764 51.1569 51.9086C48.0601 41.4968 53.8961 30.4515 64.0901 27.5163C74.1004 24.634 84.2224 30.7841 86.8056 40.9888C89.3299 50.9616 83.7438 61.3414 74.2326 64.4238ZM73.4513 61.5819C81.4825 59.0011 86.1901 50.2413 84.0346 41.8377C81.8367 33.2695 73.3187 28.1502 64.9344 30.589C56.4219 33.0653 51.5378 42.2945 54.0978 51.008C56.607 59.5494 65.3015 64.2005 73.4513 61.5819Z" fill="url(#paint48_linear_1_1787)"/>
<path d="M73.9569 63.421C64.8178 66.3741 55.0397 61.182 52.199 51.5896C49.2936 41.7797 54.7921 31.3788 64.3891 28.6052C73.8239 25.8789 83.379 31.6625 85.8275 41.2881C88.2229 50.7075 82.9466 60.5163 73.9569 63.421ZM73.4512 61.5819C81.4824 59.0011 86.1901 50.2413 84.0345 41.8377C81.8366 33.2695 73.3186 28.1502 64.9344 30.589C56.4218 33.0653 51.5377 42.2945 54.0978 51.008C56.6069 59.5494 65.3014 64.2005 73.4512 61.5819Z" fill="url(#paint49_linear_1_1787)"/>
<path d="M17.0525 60.8487L17.394 60.0003C17.394 60.0003 17.9516 60.0339 18.4087 59.706C18.6579 59.5274 19.1003 59.4744 19.2285 59.5099C19.3571 59.5456 19.8425 59.5241 19.2891 59.7884C18.7359 60.0524 18.7402 60.2487 18.971 60.465C19.2015 60.6814 20.0791 61.1478 20.3951 61.1705C20.711 61.1926 20.1398 61.6813 19.8212 61.7441C19.5026 61.8064 18.9801 61.8853 18.3336 61.5043C18.0982 61.3658 17.0525 60.8487 17.0525 60.8487Z" fill="url(#paint50_linear_1_1787)"/>
<path d="M47.6754 53.6194C47.6754 53.6194 49.1034 53.4773 49.9542 53.1131C50.8049 52.7491 51.3544 53.2717 51.2765 53.6336C51.1987 53.9956 49.7987 54.4995 49.2392 54.5171C48.6802 54.536 47.6754 53.6194 47.6754 53.6194Z" fill="url(#paint51_linear_1_1787)"/>
<path d="M27.1957 36.7936C27.2419 37.3983 26.9761 37.936 26.5326 38.1467C26.269 38.2718 26.008 38.2507 25.8602 38.2244C25.6217 37.7239 25.3833 37.2235 25.145 36.723C25.4561 36.7508 25.7826 36.7723 26.1232 36.7847C26.4975 36.7985 26.8555 36.8005 27.1957 36.7936Z" fill="url(#paint52_linear_1_1787)"/>
<path d="M26.7166 38.0362C26.7166 38.0362 27.5796 47.7273 30.6052 49.2788C30.5278 49.5892 30.6052 52.1103 30.6052 52.1103C30.6052 52.1103 27.7848 51.2611 27.6242 51.3175C27.4634 51.3733 24.2086 45.9784 25.86 38.2244L26.7166 38.0362Z" fill="url(#paint53_linear_1_1787)"/>
<defs>
<linearGradient id="paint0_linear_1_1787" x1="50.4004" y1="100.292" x2="52.4659" y2="80.3258" gradientUnits="userSpaceOnUse">
<stop stop-color="#444B8C"/>
<stop offset="0.9964" stop-color="#26264F"/>
</linearGradient>
<linearGradient id="paint1_linear_1_1787" x1="36.0663" y1="44.5815" x2="14.2636" y2="47.106" gradientUnits="userSpaceOnUse">
<stop stop-color="#444B8C"/>
<stop offset="0.3946" stop-color="#383C74"/>
<stop offset="0.9964" stop-color="#26264F"/>
</linearGradient>
<linearGradient id="paint2_linear_1_1787" x1="73.1725" y1="4.54312" x2="14.6496" y2="93.5896" gradientUnits="userSpaceOnUse">
<stop stop-color="#444B8C"/>
<stop offset="0.9964" stop-color="#26264F"/>
</linearGradient>
<linearGradient id="paint3_linear_1_1787" x1="65.6823" y1="15.906" x2="-2.70901" y2="116.198" gradientUnits="userSpaceOnUse">
<stop offset="0.0036" stop-color="#E38DDD"/>
<stop offset="1" stop-color="#9571F6"/>
</linearGradient>
<linearGradient id="paint4_linear_1_1787" x1="81.8356" y1="73.7797" x2="82.7887" y2="73.7797" gradientUnits="userSpaceOnUse">
<stop stop-color="#FFC444"/>
<stop offset="0.9964" stop-color="#F36F56"/>
</linearGradient>
<linearGradient id="paint5_linear_1_1787" x1="80.3132" y1="75.8243" x2="80.2991" y2="72.4026" gradientUnits="userSpaceOnUse">
<stop offset="0.1" stop-color="#311944"/>
<stop offset="0.267" stop-color="#371B47"/>
<stop offset="0.4803" stop-color="#462150"/>
<stop offset="0.7186" stop-color="#612A5F"/>
<stop offset="0.9736" stop-color="#853774"/>
<stop offset="1" stop-color="#893976"/>
</linearGradient>
<linearGradient id="paint6_linear_1_1787" x1="79.0304" y1="73.4618" x2="81.5915" y2="74.7844" gradientUnits="userSpaceOnUse">
<stop offset="0.1" stop-color="#311944"/>
<stop offset="0.267" stop-color="#371B47"/>
<stop offset="0.4803" stop-color="#462150"/>
<stop offset="0.7186" stop-color="#612A5F"/>
<stop offset="0.9736" stop-color="#853774"/>
<stop offset="1" stop-color="#893976"/>
</linearGradient>
<linearGradient id="paint7_linear_1_1787" x1="78.1302" y1="74.1138" x2="78.9716" y2="74.1138" gradientUnits="userSpaceOnUse">
<stop stop-color="#FFC444"/>
<stop offset="0.9964" stop-color="#F36F56"/>
</linearGradient>
<linearGradient id="paint8_linear_1_1787" x1="75.3113" y1="78.1038" x2="72.8923" y2="64.7166" gradientUnits="userSpaceOnUse">
<stop offset="0.1" stop-color="#311944"/>
<stop offset="0.6853" stop-color="#6D2F66"/>
<stop offset="1" stop-color="#893976"/>
</linearGradient>
<linearGradient id="paint9_linear_1_1787" x1="81.8184" y1="83.3148" x2="72.121" y2="78.1213" gradientUnits="userSpaceOnUse">
<stop stop-color="#311944"/>
<stop offset="1" stop-color="#893976"/>
</linearGradient>
<linearGradient id="paint10_linear_1_1787" x1="72.8817" y1="76.2791" x2="76.0169" y2="80.9751" gradientUnits="userSpaceOnUse">
<stop stop-color="#311944"/>
<stop offset="1" stop-color="#893976"/>
</linearGradient>
<linearGradient id="paint11_linear_1_1787" x1="80.4914" y1="69.7624" x2="82.5901" y2="84.1563" gradientUnits="userSpaceOnUse">
<stop offset="0.1" stop-color="#311944"/>
<stop offset="0.6853" stop-color="#6D2F66"/>
<stop offset="1" stop-color="#893976"/>
</linearGradient>
<linearGradient id="paint12_linear_1_1787" x1="78.5561" y1="78.176" x2="86.4574" y2="83.9469" gradientUnits="userSpaceOnUse">
<stop stop-color="#311944"/>
<stop offset="1" stop-color="#893976"/>
</linearGradient>
<linearGradient id="paint13_linear_1_1787" x1="76.4904" y1="77.4848" x2="79.8771" y2="77.3529" gradientUnits="userSpaceOnUse">
<stop offset="0.1" stop-color="#311944"/>
<stop offset="0.6853" stop-color="#6D2F66"/>
<stop offset="1" stop-color="#893976"/>
</linearGradient>
<linearGradient id="paint14_linear_1_1787" x1="81.7473" y1="88.439" x2="79.6715" y2="75.4879" gradientUnits="userSpaceOnUse">
<stop offset="0.1" stop-color="#311944"/>
<stop offset="0.267" stop-color="#371B47"/>
<stop offset="0.4803" stop-color="#462150"/>
<stop offset="0.7186" stop-color="#612A5F"/>
<stop offset="0.9736" stop-color="#853774"/>
<stop offset="1" stop-color="#893976"/>
</linearGradient>
<linearGradient id="paint15_linear_1_1787" x1="82.3188" y1="91.4552" x2="79.0992" y2="73.6375" gradientUnits="userSpaceOnUse">
<stop stop-color="#311944"/>
<stop offset="1" stop-color="#893976"/>
</linearGradient>
<linearGradient id="paint16_linear_1_1787" x1="85.1238" y1="81.6735" x2="79.2526" y2="78.7147" gradientUnits="userSpaceOnUse">
<stop stop-color="#FFC444"/>
<stop offset="0.9964" stop-color="#F36F56"/>
</linearGradient>
<linearGradient id="paint17_linear_1_1787" x1="79.7463" y1="79.4044" x2="85.7483" y2="81.4987" gradientUnits="userSpaceOnUse">
<stop stop-color="#FFC444"/>
<stop offset="0.9964" stop-color="#F36F56"/>
</linearGradient>
<linearGradient id="paint18_linear_1_1787" x1="65.7555" y1="4.19364" x2="56.6332" y2="43.6086" gradientUnits="userSpaceOnUse">
<stop stop-color="#D8DEE8"/>
<stop offset="1" stop-color="white"/>
</linearGradient>
<linearGradient id="paint19_linear_1_1787" x1="62.5202" y1="-2.98238" x2="62.1759" y2="19.051" gradientUnits="userSpaceOnUse">
<stop stop-color="#FF9085"/>
<stop offset="1" stop-color="#FB6FBB"/>
</linearGradient>
<linearGradient id="paint20_linear_1_1787" x1="133.103" y1="24.0748" x2="16.9259" y2="24.591" gradientUnits="userSpaceOnUse">
<stop offset="0.0036" stop-color="#F36F56"/>
<stop offset="0.3059" stop-color="#F99C4C"/>
<stop offset="0.545" stop-color="#FDB946"/>
<stop offset="0.6817" stop-color="#FFC444"/>
<stop offset="0.8038" stop-color="#FFC244"/>
<stop offset="0.8667" stop-color="#FEBA46"/>
<stop offset="0.916" stop-color="#FCAD49"/>
<stop offset="0.958" stop-color="#F99A4D"/>
<stop offset="0.9955" stop-color="#F58152"/>
<stop offset="1" stop-color="#F57E53"/>
</linearGradient>
<linearGradient id="paint21_linear_1_1787" x1="133.114" y1="26.1001" x2="16.9346" y2="26.6163" gradientUnits="userSpaceOnUse">
<stop offset="0.0036" stop-color="#F36F56"/>
<stop offset="0.3059" stop-color="#F99C4C"/>
<stop offset="0.545" stop-color="#FDB946"/>
<stop offset="0.6817" stop-color="#FFC444"/>
<stop offset="0.8038" stop-color="#FFC244"/>
<stop offset="0.8667" stop-color="#FEBA46"/>
<stop offset="0.916" stop-color="#FCAD49"/>
<stop offset="0.958" stop-color="#F99A4D"/>
<stop offset="0.9955" stop-color="#F58152"/>
<stop offset="1" stop-color="#F57E53"/>
</linearGradient>
<linearGradient id="paint22_linear_1_1787" x1="133.126" y1="27.0769" x2="16.9339" y2="27.5932" gradientUnits="userSpaceOnUse">
<stop offset="0.0036" stop-color="#F36F56"/>
<stop offset="0.3059" stop-color="#F99C4C"/>
<stop offset="0.545" stop-color="#FDB946"/>
<stop offset="0.6817" stop-color="#FFC444"/>
<stop offset="0.8038" stop-color="#FFC244"/>
<stop offset="0.8667" stop-color="#FEBA46"/>
<stop offset="0.916" stop-color="#FCAD49"/>
<stop offset="0.958" stop-color="#F99A4D"/>
<stop offset="0.9955" stop-color="#F58152"/>
<stop offset="1" stop-color="#F57E53"/>
</linearGradient>
<linearGradient id="paint23_linear_1_1787" x1="133.09" y1="21.7763" x2="16.9177" y2="22.2925" gradientUnits="userSpaceOnUse">
<stop offset="0.0036" stop-color="#F36F56"/>
<stop offset="0.3059" stop-color="#F99C4C"/>
<stop offset="0.545" stop-color="#FDB946"/>
<stop offset="0.6817" stop-color="#FFC444"/>
<stop offset="0.8038" stop-color="#FFC244"/>
<stop offset="0.8667" stop-color="#FEBA46"/>
<stop offset="0.916" stop-color="#FCAD49"/>
<stop offset="0.958" stop-color="#F99A4D"/>
<stop offset="0.9955" stop-color="#F58152"/>
<stop offset="1" stop-color="#F57E53"/>
</linearGradient>
<linearGradient id="paint24_linear_1_1787" x1="133.108" y1="22.5787" x2="16.9131" y2="23.095" gradientUnits="userSpaceOnUse">
<stop offset="0.0036" stop-color="#F36F56"/>
<stop offset="0.3059" stop-color="#F99C4C"/>
<stop offset="0.545" stop-color="#FDB946"/>
<stop offset="0.6817" stop-color="#FFC444"/>
<stop offset="0.8038" stop-color="#FFC244"/>
<stop offset="0.8667" stop-color="#FEBA46"/>
<stop offset="0.916" stop-color="#FCAD49"/>
<stop offset="0.958" stop-color="#F99A4D"/>
<stop offset="0.9955" stop-color="#F58152"/>
<stop offset="1" stop-color="#F57E53"/>
</linearGradient>
<linearGradient id="paint25_linear_1_1787" x1="133.097" y1="21.3745" x2="16.9108" y2="21.8908" gradientUnits="userSpaceOnUse">
<stop offset="0.0036" stop-color="#F36F56"/>
<stop offset="0.3059" stop-color="#F99C4C"/>
<stop offset="0.545" stop-color="#FDB946"/>
<stop offset="0.6817" stop-color="#FFC444"/>
<stop offset="0.8038" stop-color="#FFC244"/>
<stop offset="0.8667" stop-color="#FEBA46"/>
<stop offset="0.916" stop-color="#FCAD49"/>
<stop offset="0.958" stop-color="#F99A4D"/>
<stop offset="0.9955" stop-color="#F58152"/>
<stop offset="1" stop-color="#F57E53"/>
</linearGradient>
<linearGradient id="paint26_linear_1_1787" x1="133.109" y1="23.3716" x2="16.9158" y2="23.8879" gradientUnits="userSpaceOnUse">
<stop offset="0.0036" stop-color="#F36F56"/>
<stop offset="0.3059" stop-color="#F99C4C"/>
<stop offset="0.545" stop-color="#FDB946"/>
<stop offset="0.6817" stop-color="#FFC444"/>
<stop offset="0.8038" stop-color="#FFC244"/>
<stop offset="0.8667" stop-color="#FEBA46"/>
<stop offset="0.916" stop-color="#FCAD49"/>
<stop offset="0.958" stop-color="#F99A4D"/>
<stop offset="0.9955" stop-color="#F58152"/>
<stop offset="1" stop-color="#F57E53"/>
</linearGradient>
<linearGradient id="paint27_linear_1_1787" x1="133.107" y1="25.5514" x2="16.9378" y2="26.0676" gradientUnits="userSpaceOnUse">
<stop offset="0.0036" stop-color="#F36F56"/>
<stop offset="0.3059" stop-color="#F99C4C"/>
<stop offset="0.545" stop-color="#FDB946"/>
<stop offset="0.6817" stop-color="#FFC444"/>
<stop offset="0.8038" stop-color="#FFC244"/>
<stop offset="0.8667" stop-color="#FEBA46"/>
<stop offset="0.916" stop-color="#FCAD49"/>
<stop offset="0.958" stop-color="#F99A4D"/>
<stop offset="0.9955" stop-color="#F58152"/>
<stop offset="1" stop-color="#F57E53"/>
</linearGradient>
<linearGradient id="paint28_linear_1_1787" x1="37.3605" y1="86.4519" x2="36.4392" y2="97.8281" gradientUnits="userSpaceOnUse">
<stop stop-color="#311944"/>
<stop offset="1" stop-color="#A03976"/>
</linearGradient>
<linearGradient id="paint29_linear_1_1787" x1="35.0369" y1="92.7808" x2="35.2277" y2="80.9972" gradientUnits="userSpaceOnUse">
<stop stop-color="#FFC444"/>
<stop offset="0.9964" stop-color="#F36F56"/>
</linearGradient>
<linearGradient id="paint30_linear_1_1787" x1="20.4673" y1="85.0847" x2="19.5461" y2="96.4598" gradientUnits="userSpaceOnUse">
<stop stop-color="#311944"/>
<stop offset="1" stop-color="#A03976"/>
</linearGradient>
<linearGradient id="paint31_linear_1_1787" x1="19.5527" y1="92.5309" x2="19.7436" y2="80.7442" gradientUnits="userSpaceOnUse">
<stop stop-color="#FFC444"/>
<stop offset="0.9964" stop-color="#F36F56"/>
</linearGradient>
<linearGradient id="paint32_linear_1_1787" x1="25.1111" y1="40.4985" x2="37.619" y2="79.7431" gradientUnits="userSpaceOnUse">
<stop stop-color="#311944"/>
<stop offset="1" stop-color="#A03976"/>
</linearGradient>
<linearGradient id="paint33_linear_1_1787" x1="37.8955" y1="73.6959" x2="29.1815" y2="73.675" gradientUnits="userSpaceOnUse">
<stop stop-color="#444B8C"/>
<stop offset="0.9964" stop-color="#26264F"/>
</linearGradient>
<linearGradient id="paint34_linear_1_1787" x1="10.2595" y1="62.1399" x2="25.7507" y2="73.0412" gradientUnits="userSpaceOnUse">
<stop stop-color="#311944"/>
<stop offset="1" stop-color="#A03976"/>
</linearGradient>
<linearGradient id="paint35_linear_1_1787" x1="26.2836" y1="25.9101" x2="25.1361" y2="37.0411" gradientUnits="userSpaceOnUse">
<stop stop-color="#FFC444"/>
<stop offset="0.9964" stop-color="#F36F56"/>
</linearGradient>
<linearGradient id="paint36_linear_1_1787" x1="24.3881" y1="36.576" x2="27.014" y2="28.8487" gradientUnits="userSpaceOnUse">
<stop stop-color="#444B8C"/>
<stop offset="0.9964" stop-color="#3E4177"/>
</linearGradient>
<linearGradient id="paint37_linear_1_1787" x1="24.9248" y1="32.224" x2="27.861" y2="32.224" gradientUnits="userSpaceOnUse">
<stop stop-color="#FFC444"/>
<stop offset="0.9964" stop-color="#F36F56"/>
</linearGradient>
<linearGradient id="paint38_linear_1_1787" x1="47.9012" y1="49.9223" x2="33.7886" y2="49.9223" gradientUnits="userSpaceOnUse">
<stop stop-color="#AA80F9"/>
<stop offset="0.9964" stop-color="#6165D7"/>
</linearGradient>
<linearGradient id="paint39_linear_1_1787" x1="38.9281" y1="52.8729" x2="9.97438" y2="52.8729" gradientUnits="userSpaceOnUse">
<stop stop-color="#AA80F9"/>
<stop offset="0.9964" stop-color="#6165D7"/>
</linearGradient>
<linearGradient id="paint40_linear_1_1787" x1="53.6086" y1="56.5251" x2="17.6668" y2="56.5251" gradientUnits="userSpaceOnUse">
<stop stop-color="#444B8C"/>
<stop offset="0.9964" stop-color="#26264F"/>
</linearGradient>
<linearGradient id="paint41_linear_1_1787" x1="86.7576" y1="45.1801" x2="49.6717" y2="45.1801" gradientUnits="userSpaceOnUse">
<stop stop-color="#444B8C"/>
<stop offset="0.9964" stop-color="#26264F"/>
</linearGradient>
<linearGradient id="paint42_linear_1_1787" x1="70.3784" y1="45.1755" x2="60.4404" y2="48.3649" gradientUnits="userSpaceOnUse">
<stop stop-color="#FCB148"/>
<stop offset="0.0521" stop-color="#FDBA46"/>
<stop offset="0.1424" stop-color="#FFC244"/>
<stop offset="0.3183" stop-color="#FFC444"/>
<stop offset="0.4849" stop-color="#FDB946"/>
<stop offset="0.7754" stop-color="#F99C4D"/>
<stop offset="0.8658" stop-color="#F8924F"/>
<stop offset="1" stop-color="#F8924F"/>
</linearGradient>
<linearGradient id="paint43_linear_1_1787" x1="78.4177" y1="35.2836" x2="69.5456" y2="54.8573" gradientUnits="userSpaceOnUse">
<stop stop-color="#FFDB44"/>
<stop offset="1" stop-color="#FEEF06"/>
</linearGradient>
<linearGradient id="paint44_linear_1_1787" x1="76.7856" y1="55.9512" x2="75.0737" y2="46.599" gradientUnits="userSpaceOnUse">
<stop stop-color="#FCB148"/>
<stop offset="0.0521" stop-color="#FDBA46"/>
<stop offset="0.1424" stop-color="#FFC244"/>
<stop offset="0.3183" stop-color="#FFC444"/>
<stop offset="0.4849" stop-color="#FDB946"/>
<stop offset="0.7754" stop-color="#F99C4D"/>
<stop offset="0.8658" stop-color="#F8924F"/>
<stop offset="1" stop-color="#F8924F"/>
</linearGradient>
<linearGradient id="paint45_linear_1_1787" x1="73.1562" y1="40.8139" x2="80.2112" y2="55.7902" gradientUnits="userSpaceOnUse">
<stop stop-color="#FCB148"/>
<stop offset="0.0521" stop-color="#FDBA46"/>
<stop offset="0.1424" stop-color="#FFC244"/>
<stop offset="0.3183" stop-color="#FFC444"/>
<stop offset="0.4849" stop-color="#FDB946"/>
<stop offset="0.7754" stop-color="#F99C4D"/>
<stop offset="0.8658" stop-color="#F8924F"/>
<stop offset="1" stop-color="#F8924F"/>
</linearGradient>
<linearGradient id="paint46_linear_1_1787" x1="72.8753" y1="37.5911" x2="76.4227" y2="50.8863" gradientUnits="userSpaceOnUse">
<stop stop-color="#FFDB44"/>
<stop offset="1" stop-color="#FEEF06"/>
</linearGradient>
<linearGradient id="paint47_linear_1_1787" x1="71.0805" y1="41.7829" x2="78.1213" y2="56.729" gradientUnits="userSpaceOnUse">
<stop stop-color="#FCB148"/>
<stop offset="0.0521" stop-color="#FDBA46"/>
<stop offset="0.1424" stop-color="#FFC244"/>
<stop offset="0.3183" stop-color="#FFC444"/>
<stop offset="0.4849" stop-color="#FDB946"/>
<stop offset="0.7754" stop-color="#F99C4D"/>
<stop offset="0.8658" stop-color="#F8924F"/>
<stop offset="1" stop-color="#F8924F"/>
</linearGradient>
<linearGradient id="paint48_linear_1_1787" x1="73.2204" y1="66.023" x2="67.2561" y2="38.6322" gradientUnits="userSpaceOnUse">
<stop stop-color="#444B8C"/>
<stop offset="0.9964" stop-color="#26264F"/>
</linearGradient>
<linearGradient id="paint49_linear_1_1787" x1="64.3508" y1="25.9391" x2="72.6745" y2="62.6737" gradientUnits="userSpaceOnUse">
<stop stop-color="#444B8C"/>
<stop offset="0.9964" stop-color="#26264F"/>
</linearGradient>
<linearGradient id="paint50_linear_1_1787" x1="17.0525" y1="60.648" x2="20.4875" y2="60.648" gradientUnits="userSpaceOnUse">
<stop stop-color="#FFC444"/>
<stop offset="0.9964" stop-color="#F36F56"/>
</linearGradient>
<linearGradient id="paint51_linear_1_1787" x1="47.6755" y1="53.7535" x2="51.2839" y2="53.7535" gradientUnits="userSpaceOnUse">
<stop stop-color="#FFC444"/>
<stop offset="0.9964" stop-color="#F36F56"/>
</linearGradient>
<linearGradient id="paint52_linear_1_1787" x1="26.4704" y1="32.4981" x2="25.973" y2="39.7845" gradientUnits="userSpaceOnUse">
<stop stop-color="#444B8C"/>
<stop offset="0.9964" stop-color="#26264F"/>
</linearGradient>
<linearGradient id="paint53_linear_1_1787" x1="27.9997" y1="47.3639" x2="27.9997" y2="30.3449" gradientUnits="userSpaceOnUse">
<stop stop-color="#444B8C"/>
<stop offset="0.9964" stop-color="#26264F"/>
</linearGradient>
</defs>
</svg>
