<svg width="114" height="113" viewBox="0 0 114 113" fill="none" xmlns="http://www.w3.org/2000/svg">
<path d="M26.9362 7.3644C23.237 12.7568 27.5744 21.4992 22.0854 25.5548C16.7423 29.5025 10.1785 23.0316 5.14301 26.4298C-2.32691 31.4709 -0.962737 54.5378 9.95864 68.8697C13.2431 73.1799 15.9874 74.8568 17.2029 79.7314C19.8128 90.1982 10.6402 96.4245 12.3858 101.601C16.316 113.257 76.7615 123.038 101.015 88.0078C112.342 71.6471 114.037 48.0222 103.916 30.0789C85.6286 -2.34426 35.2365 -4.73518 26.9362 7.3644Z" fill="#F4F7FA"/>
<path d="M52.0108 102.152C50.3605 95.493 48.9265 85.4082 52.2864 74.5795C56.1445 62.1452 62.7975 60.0943 69.6065 47.0023C79.3263 28.3139 70.9871 13.6343 80.0032 8.37147C84.4 5.80506 90.9781 6.29124 94.819 9.48099C105.778 18.5816 99.9395 54.2428 80.5411 66.8872C71.7679 72.6059 64.5786 71.3162 57.7392 79.0516C51.6958 85.8868 51.4178 95.4755 52.0108 102.152Z" fill="url(#paint0_linear_1_1899)"/>
<path d="M51.8867 85.6873L51.7582 85.6442C52.6597 82.9532 53.7985 80.3271 55.1428 77.839C58.2338 72.1179 61.3972 69.0843 65.4023 65.2436C68.0061 62.7467 70.9572 59.9167 74.4285 55.805C80.9219 48.1137 82.9609 45.3954 84.9356 40.925C88.8454 32.0737 88.9541 23.8858 88.6709 19.7928C88.2691 13.9868 86.7476 8.37677 84.1487 3.1186L84.2703 3.05854C86.877 8.33267 88.4031 13.9597 88.8061 19.7834C89.0902 23.8889 88.9811 32.1018 85.0595 40.9797C83.078 45.4658 81.0353 48.1895 74.5322 55.8924C71.0561 60.0097 68.1023 62.8423 65.4961 65.3415C61.4996 69.1739 58.3429 72.201 55.2621 77.9034C53.9214 80.3847 52.7858 83.0036 51.8867 85.6873Z" fill="white"/>
<path d="M87.1964 34.6076L87.2027 34.4962C87.5818 27.7843 83.6202 23.128 80.2301 20.4037C76.5523 17.4483 72.7371 16.0659 72.6991 16.0523L72.7447 15.9246C72.7831 15.9383 76.6196 17.3285 80.3151 20.298C83.7109 23.0268 87.6757 27.6818 87.3441 34.3901C87.9473 34.0977 91.1299 32.4652 94.122 29.2223C97.1706 25.9181 100.64 20.2167 99.8544 11.82L99.9894 11.8074C100.78 20.2563 97.2872 25.9933 94.218 29.3182C90.8934 32.9198 87.3338 34.5459 87.2982 34.5618L87.1964 34.6076Z" fill="white"/>
<path d="M86.0511 56.0982C84.7914 56.0982 83.6306 55.9792 82.6165 55.8101C78.8841 55.1875 76.2828 53.7687 76.2568 53.7545L76.2069 53.727L76.2255 53.6731C78.4406 47.2195 77.3009 42.259 75.9549 39.2342C74.4971 35.9583 72.4932 34.1869 72.473 34.1694L72.5623 34.0672C72.5825 34.0849 74.6089 35.8761 76.0787 39.179C77.4309 42.2176 78.5766 47.1938 76.3723 53.6625C76.7495 53.8607 79.2161 55.1062 82.6434 55.6771C86.0645 56.247 91.1709 56.2421 96.07 52.9813L96.145 53.0942C92.6605 55.4135 89.0723 56.0982 86.0511 56.0982Z" fill="white"/>
<path d="M77.5387 68.0917C74.7495 68.0917 72.5647 67.5977 70.9857 67.0392C67.9037 65.9491 66.3979 64.3815 66.3831 64.3659L66.3496 64.3305L66.3723 64.2876C69.7864 57.8211 66.5292 46.5881 66.496 46.4754L66.626 46.4369C66.6595 46.5499 69.9171 57.7853 66.5155 64.3068C66.7528 64.5407 68.2373 65.925 71.0395 66.9144C73.8595 67.9101 78.629 68.6982 85.3372 66.7972L85.374 66.9276C82.3786 67.7765 79.7658 68.0917 77.5387 68.0917Z" fill="white"/>
<path d="M44.2396 100.179C43.5475 95.9931 43.1496 89.4552 46.5572 83.6084C52.5019 73.4081 63.3375 76.7917 73.7091 65.8635C82.0743 57.0496 79.4381 50.1992 88.7073 44.3416C90.2588 43.3611 98.4568 37.9656 104.553 41.2154C107.989 43.0466 109.233 46.8061 109.467 47.5119C112.998 58.1784 102.134 74.8784 87.9725 82.5166C79.8364 86.9049 77.2114 85.4708 62.8937 90.5888C54.4804 93.5963 48.1636 97.4689 44.2396 100.179Z" fill="url(#paint1_linear_1_1899)"/>
<path d="M43.0077 105.213L42.8749 105.185C44.9575 95.1815 48.9072 88.4608 54.6144 85.2096C57.4077 83.6182 59.6321 83.3665 61.9871 83.1C64.5219 82.8131 67.1427 82.5165 70.6026 80.4242C73.9654 78.3908 75.1708 76.4329 76.6969 73.9543C78.069 71.7261 79.7763 68.9532 83.6086 65.2597C86.9674 62.0223 89.4134 60.5071 91.5716 59.1703C93.9104 57.7215 95.7579 56.5772 97.8971 53.7738C101.391 49.1953 103.217 43.325 103.324 36.3259L103.46 36.328C103.352 43.3567 101.517 49.2539 98.005 53.856C95.8504 56.6792 93.9937 57.8294 91.643 59.2855C89.4906 60.6188 87.0512 62.1299 83.7026 65.3573C79.8828 69.0389 78.1804 71.8037 76.8125 74.0254C75.2767 76.5196 74.0636 78.4897 70.6729 80.5402C67.1876 82.6478 64.5517 82.9461 62.0025 83.2346C59.6617 83.4995 57.4507 83.7498 54.6816 85.3273C49.0096 88.5585 45.082 95.2489 43.0077 105.213Z" fill="white"/>
<path d="M91.5394 59.8943C91.2509 59.8943 90.9604 59.8899 90.6661 59.8809L90.5754 59.8782L90.6039 59.792C90.6498 59.6523 95.1431 45.7588 90.0234 40.0142L90.1248 39.924C91.6181 41.5997 93.2235 45.0706 92.3905 52.0895C91.9366 55.9143 90.9391 59.1819 90.7602 59.7481C98.3831 59.9563 104.044 57.0744 107.459 54.6142C111.176 51.9367 113.104 49.1678 113.123 49.1402L113.235 49.217C113.216 49.2448 111.277 52.0299 107.542 54.721C104.228 57.1097 98.8036 59.8943 91.5394 59.8943Z" fill="white"/>
<path d="M92.098 71.7276C90.9249 71.7276 89.8343 71.6667 88.8445 71.5714C83.5237 71.0591 79.915 69.4692 79.8792 69.4532L79.826 69.4295L79.8414 69.3733C81.8423 62.1295 80.0772 51.8237 80.0592 51.7204L80.1926 51.6971C80.2108 51.8003 81.9715 62.0827 79.9877 69.3525C80.4534 69.5502 83.9134 70.9611 88.8626 71.437C93.7517 71.9071 101.137 71.5344 108.551 67.0892L108.621 67.2054C102.674 70.7707 96.7455 71.7276 92.098 71.7276Z" fill="white"/>
<path d="M85.7875 88.6227C72.1447 88.6227 64.3108 82.9796 64.2313 82.9211L64.1738 82.8788L64.2191 82.8235C69.7193 76.1092 67.5772 65.0144 67.5549 64.9031L67.6878 64.8764C67.6934 64.9044 68.2466 67.7158 68.1086 71.324C67.9817 74.6396 67.2289 79.323 64.3699 82.853C65.1305 83.3819 73.2318 88.7692 86.8595 88.4755L86.8624 88.611C86.5009 88.6188 86.1412 88.6227 85.7875 88.6227Z" fill="white"/>
<path d="M45.9236 95.0575C48.866 93.5337 53.629 91.402 59.7945 90.1819C70.7609 88.0116 75.2195 90.8912 80.278 87.1296C85.5142 83.2359 83.2127 78.3092 89.4279 74.0149C89.9505 73.6539 96.6032 69.1843 101.626 71.9462C105.139 73.8784 105.969 78.3122 106.358 80.3926C107.868 88.4668 104.621 99.9578 95.5734 104.536C86.995 108.876 77.5315 104.825 74.5301 103.516C69.2648 101.22 68.2779 98.8926 62.9007 96.7251C56.3614 94.0892 50.0894 94.4151 45.9236 95.0575Z" fill="url(#paint2_linear_1_1899)"/>
<path d="M79.9759 97.3214C78.9644 97.3214 77.9308 97.2673 76.879 97.158C73.3407 96.79 71.323 95.8093 69.1867 94.771C67.4965 93.9495 65.7487 93.1 63.1646 92.5729C57.2464 91.3656 50.6211 92.6697 43.4738 96.449L43.4104 96.3291C50.5862 92.5348 57.2417 91.2263 63.1917 92.44C65.7927 92.9706 67.5482 93.8239 69.2459 94.649C71.3711 95.682 73.3785 96.6577 76.8929 97.0231C77.9396 97.1319 78.9698 97.1858 79.9763 97.1859C85.0505 97.186 89.5516 95.8182 92.8745 93.2267C99.0418 88.417 101.598 79.2099 99.3881 69.7704L99.5203 69.7395C101.743 79.2303 99.1667 88.4915 92.958 93.3336C89.6113 95.9435 85.0798 97.3213 79.9759 97.3214Z" fill="white"/>
<path d="M95.9783 90.0578L96.0012 89.9561C97.1887 84.6567 94.5579 80.1208 92.1417 77.2488C89.5198 74.1322 86.5799 72.2486 86.5505 72.23L86.6232 72.1155C86.6528 72.1343 89.6103 74.0291 92.2454 77.1615C94.6657 80.0384 97.2993 84.5732 96.1562 89.8824C96.6767 89.7665 99.1063 89.1811 101.682 87.8397C104.346 86.4525 107.715 83.9495 108.643 79.9021L108.775 79.9324C107.835 84.0314 104.432 86.5611 101.742 87.9615C98.8323 89.476 96.1079 90.0319 96.0807 90.0373L95.9783 90.0578Z" fill="white"/>
<path d="M95.683 102.198C92.6138 102.198 90.0952 101.639 88.187 100.975C84.0118 99.5227 81.7765 97.2689 81.7543 97.2462L81.708 97.199L81.7542 97.1516C85.5246 93.2851 85.6969 88.4689 85.1775 85.1096C84.6139 81.4646 83.1388 78.702 83.124 78.6745L83.2432 78.6101C83.2582 78.6378 84.7443 81.421 85.3115 85.0889C85.8335 88.4647 85.662 93.2996 81.8984 97.1977C82.2399 97.5259 84.4224 99.5235 88.2387 100.849C92.0667 102.179 98.3687 103.086 106.654 99.8525L106.703 99.9788C102.502 101.618 98.8074 102.198 95.683 102.198Z" fill="white"/>
<path d="M70.4809 10.8268V100.064C70.4809 101.398 69.3397 101.728 68.0444 101.819L22.8291 105.854L22.1317 105.904C20.6994 106.005 19.5243 104.935 19.5243 103.526V9.32694C19.5243 7.91825 20.6994 6.80336 22.1317 6.84931L23.0781 6.87969L68.4473 10.3408C69.7421 10.3813 70.4809 9.49228 70.4809 10.8268Z" fill="url(#paint3_linear_1_1899)"/>
<path d="M71.8613 10.8246V100.013C71.8613 101.347 70.8055 102.513 69.5117 102.604L23.5654 105.849C22.1347 105.95 20.9609 104.881 20.9609 103.473V9.32555C20.9609 7.91766 22.1347 6.8034 23.5654 6.84934L69.5117 8.32419C70.8055 8.36569 71.8613 9.49081 71.8613 10.8246Z" fill="url(#paint4_linear_1_1899)"/>
<path d="M70.4027 15.7328V98.403C70.4027 99.6489 69.4149 100.736 68.2046 100.819L25.0025 103.782C23.6722 103.873 22.5811 102.875 22.5811 101.564V14.5826C22.5811 13.2717 23.6722 12.228 25.0025 12.2633L68.2046 13.4091C69.4149 13.4412 70.4027 14.4868 70.4027 15.7328Z" fill="#D8DEE8"/>
<path d="M47.952 10.3952C47.952 10.8696 47.5705 11.2435 47.0994 11.2302C46.6279 11.2168 46.2452 10.8207 46.2452 10.3455C46.2452 9.87024 46.6279 9.49642 47.0994 9.51061C47.5705 9.52477 47.952 9.92082 47.952 10.3952Z" fill="#DE8BDF"/>
<path d="M66.9442 55.1752L26.3519 55.9946V17.4022L66.9442 18.0049V55.1752Z" fill="url(#paint5_linear_1_1899)"/>
<path d="M66.9441 60.6417V74.7409C66.9441 75.3251 66.4638 75.821 65.831 75.8501L49.9371 76.5802C49.2525 76.6116 48.686 76.1438 48.686 75.5337V60.8079C48.686 60.1977 49.2676 59.6981 49.9523 59.6937L65.8377 59.5915C66.4704 59.5875 66.9441 60.0575 66.9441 60.6417Z" fill="white"/>
<g opacity="0.3">
<g opacity="0.3">
<path opacity="0.3" d="M55.4337 71.3448L52.4772 71.4444V66.973L55.4337 66.9057V71.3448Z" fill="#BFC8D6"/>
<path opacity="0.3" d="M59.5299 71.2039L56.5472 71.3081V64.7122L59.5299 64.6542V71.2039Z" fill="#BFC8D6"/>
<path opacity="0.3" d="M63.5365 71.0698L60.6533 71.1671V62.7552L63.5365 62.7171V71.0698Z" fill="#BFC8D6"/>
</g>
<path opacity="0.3" d="M64.0399 72.9155L51.8636 73.3864V72.3813L64.0399 71.9392V72.9155Z" fill="#BFC8D6"/>
</g>
<path opacity="0.2" d="M63.8812 75.9401L49.9523 76.5797C49.2676 76.6111 48.686 76.1437 48.686 75.5335V60.8077C48.686 60.1975 49.2676 59.698 49.9523 59.6936L52.2406 59.6781C53.5971 61.2063 54.3754 63.3389 53.9549 65.8192C53.8851 66.2344 53.943 66.6031 54.0977 66.9368C54.3413 67.4642 54.8343 67.9047 55.4722 68.3067C55.8045 68.5168 56.1781 68.7164 56.5753 68.9122C57.4909 69.3622 58.5414 69.7935 59.553 70.2891C59.9212 70.4692 60.2841 70.659 60.6342 70.8604C60.7969 70.9542 60.9576 71.0508 61.1141 71.151C61.5226 71.4112 61.9049 71.6932 62.2486 72.0037C62.5674 72.2923 62.8527 72.6066 63.0921 72.9517C63.6484 73.752 63.9603 74.722 63.8812 75.9401Z" fill="url(#paint6_linear_1_1899)"/>
<path d="M66.9441 80.5126V95.0369C66.9441 95.6387 66.4491 96.1559 65.7982 96.194L49.9015 97.1249C49.2357 97.1639 48.686 96.7029 48.686 96.0934V81.3854C48.686 80.7759 49.2505 80.2542 49.9163 80.2229L65.8051 79.4769C66.4559 79.4464 66.9441 79.9108 66.9441 80.5126Z" fill="#BFC8D6"/>
<path opacity="0.48" d="M63.8016 96.3116L49.9163 97.1244C49.2505 97.1633 48.686 96.7028 48.686 96.0934V81.3853C48.686 80.7759 49.2505 80.2542 49.9163 80.2229L52.153 80.1171C53.4869 81.6022 54.2551 83.7237 53.8398 86.2371C53.7709 86.6575 53.828 87.0273 53.9808 87.3592C54.2214 87.8843 54.7089 88.3156 55.3409 88.7052C55.6708 88.9092 56.042 89.1017 56.4371 89.2901C57.35 89.7239 58.4011 90.1368 59.4166 90.6177C59.7871 90.7927 60.1527 90.978 60.506 91.1758C60.6703 91.268 60.8326 91.363 60.9908 91.4619C61.404 91.7189 61.7914 91.9991 62.14 92.3096C62.4637 92.5984 62.7538 92.9146 62.9974 93.2632C63.5641 94.0731 63.8823 95.0622 63.8016 96.3116Z" fill="white"/>
<path opacity="0.7" d="M61.8205 91.6874C62.2721 91.9167 62.8394 91.7061 63.0877 91.2171C63.336 90.7281 63.1711 90.1459 62.7195 89.9166C62.6961 89.9047 62.6722 89.8947 62.6483 89.8852C62.7322 89.6146 62.7954 89.3419 62.8379 89.0691C62.8637 89.0691 62.8898 89.0686 62.9161 89.0663C63.4314 89.0204 63.8403 88.5469 63.8295 88.0088C63.8187 87.4707 63.3923 87.0716 62.8771 87.1176C62.8501 87.12 62.8236 87.1243 62.7974 87.1289C62.7435 86.8622 62.6698 86.6017 62.5768 86.3496C62.6005 86.3357 62.624 86.3214 62.6471 86.3053C63.0879 85.9965 63.2288 85.3869 62.9618 84.9439C62.6949 84.5008 62.1211 84.392 61.6803 84.7008C61.6577 84.7167 61.6365 84.7337 61.6155 84.7511C61.4414 84.5586 61.2504 84.3803 61.0438 84.2175C61.0584 84.1937 61.0726 84.1695 61.0855 84.1442C61.3337 83.6552 61.1689 83.0729 60.7173 82.8437C60.2657 82.6144 59.6983 82.8249 59.4501 83.3139C59.4372 83.3392 59.4261 83.365 59.4155 83.3907C59.1622 83.32 58.9055 83.2711 58.6473 83.2441C58.649 83.2169 58.6502 83.1897 58.6497 83.1621C58.6389 82.624 58.2124 82.2249 57.6972 82.2709C57.182 82.3168 56.773 82.7903 56.7838 83.3284C56.7845 83.3565 56.7868 83.384 56.7895 83.4114C56.5311 83.485 56.2773 83.5792 56.0302 83.6931C56.0185 83.6692 56.0063 83.6453 55.9923 83.6221C55.7254 83.179 55.1516 83.0702 54.7108 83.3791C54.27 83.6879 54.1291 84.2974 54.396 84.7405C54.4097 84.7632 54.4246 84.7844 54.4399 84.8054C54.2447 85.0006 54.0618 85.2125 53.8929 85.44C53.8711 85.4263 53.8489 85.4129 53.8255 85.401C53.3739 85.1717 52.8066 85.3822 52.5583 85.8712C52.31 86.3602 52.4748 86.9425 52.9265 87.1718C52.9499 87.1837 52.9738 87.1936 52.9977 87.2032C52.9138 87.4738 52.8505 87.7464 52.8081 88.0192C52.7822 88.0193 52.7562 88.0198 52.7299 88.0221C52.2146 88.068 51.8057 88.5415 51.8165 89.0796C51.8273 89.6177 52.2537 90.0167 52.7689 89.9708C52.7958 89.9683 52.8223 89.9641 52.8486 89.9594C52.9024 90.2261 52.9761 90.4866 53.0692 90.7388C53.0455 90.7526 53.0219 90.7669 52.9989 90.7831C52.5581 91.0919 52.4172 91.7014 52.6841 92.1445C52.9511 92.5876 53.5248 92.6964 53.9656 92.3875C53.9882 92.3717 54.0094 92.3547 54.0304 92.3373C54.2046 92.5297 54.3955 92.7081 54.6021 92.8709C54.5876 92.8947 54.5733 92.9188 54.5605 92.9441C54.3122 93.4332 54.4771 94.0154 54.9287 94.2447C55.3803 94.474 55.9476 94.2634 56.1959 93.7744C56.2087 93.7491 56.2198 93.7234 56.2304 93.6976C56.4838 93.7684 56.7405 93.8173 56.9986 93.8443C56.997 93.8714 56.9957 93.8987 56.9962 93.9263C57.0071 94.4644 57.4335 94.8634 57.9487 94.8175C58.464 94.7715 58.8729 94.2981 58.862 93.76C58.8615 93.7318 58.8592 93.7043 58.8564 93.677C59.1149 93.6034 59.3687 93.5092 59.6157 93.3952C59.6275 93.4192 59.6397 93.4431 59.6536 93.4662C59.9206 93.9093 60.4943 94.0181 60.9351 93.7093C61.3759 93.4004 61.5169 92.791 61.2499 92.3478C61.2363 92.3252 61.2212 92.3039 61.206 92.283C61.4012 92.0878 61.584 91.8758 61.753 91.6484C61.7749 91.6621 61.7971 91.6755 61.8205 91.6874ZM56.1909 91.7588C54.5512 90.9263 53.9527 88.8122 54.8541 87.0368C55.7556 85.2614 57.8155 84.497 59.4552 85.3294C61.0948 86.1619 61.6933 88.276 60.7919 90.0515C59.8905 91.8269 57.8305 92.5913 56.1909 91.7588Z" fill="white"/>
<path d="M45.132 61.0726V75.7685C45.132 76.3774 44.6005 76.8904 43.9278 76.9146L27.5706 77.5044C26.8858 77.5291 26.3529 77.0505 26.3529 76.4355V61.5918C26.3529 60.9767 26.8917 60.4648 27.5766 60.4462L43.9371 60.0022C44.6098 59.9839 45.132 60.4636 45.132 61.0726Z" fill="url(#paint7_linear_1_1899)"/>
<path opacity="0.7" d="M41.7538 67.2043C41.7538 66.3338 41.3782 65.5261 40.6971 64.9306C40.0165 64.3356 39.1089 64.0222 38.1443 64.0504C37.2564 64.0764 36.4169 64.3879 35.7557 64.9325C35.1023 64.456 34.2823 64.2104 33.4206 64.2355C32.4873 64.2628 31.6075 64.6031 30.9297 65.1967C30.9019 65.2207 30.8751 65.2446 30.8484 65.2694C29.4664 66.5534 29.4159 68.5442 30.7321 69.7986L34.1028 72.7577C34.5406 73.1373 35.1237 73.3355 35.7434 73.3145C36.3616 73.2934 36.9436 73.056 37.3811 72.6473L40.6909 69.549C40.693 69.5462 40.695 69.5443 40.6971 69.5424C40.7093 69.5319 40.7205 69.5205 40.7317 69.51L40.8448 69.4032L40.8407 69.4006C41.4312 68.7844 41.7538 68.0113 41.7538 67.2043ZM39.4383 69.0614L37.7163 69.1163C37.6662 69.1179 37.6182 69.0235 37.5784 68.9989L36.8495 68.5128L36.3513 69.2391L35.0356 71.1565C34.9916 71.2216 34.9147 71.2427 34.8338 71.2453C34.8122 71.246 34.7221 71.2444 34.7006 71.2396C34.5981 71.2162 34.4609 71.1348 34.4609 71.0388V67.2869L33.9297 68.1655L33.4998 68.8556C33.4567 68.9207 33.4109 68.9759 33.3288 68.9785L30.3609 69.0727C30.2291 69.0769 30.1238 68.9682 30.1238 68.8488C30.1238 68.7294 30.2334 68.6139 30.3652 68.6098L33.2063 68.5204L33.5772 67.9728L34.6307 66.415C34.687 66.332 34.7836 66.2917 34.8851 66.3145C34.9885 66.3381 35.0452 66.4209 35.0452 66.5169V70.274L35.9001 69.036L36.5717 68.0595C36.6065 68.0077 36.6666 67.9707 36.7311 67.9576C36.7955 67.9436 36.8644 68.0217 36.9176 68.0541L37.7911 68.6529L39.438 68.6009C39.5695 68.5967 39.6757 68.7048 39.6757 68.8236C39.6757 68.9425 39.5699 69.0572 39.4383 69.0614Z" fill="white"/>
<path opacity="0.3" d="M40.8896 77.0246L27.5756 77.5045C26.8907 77.5291 26.3519 77.0506 26.3519 76.4355V61.5918C26.3519 60.9767 26.8907 60.4648 27.5756 60.4463L30.3916 60.3702C30.9998 61.6492 31.2497 63.1719 30.9648 64.8588C30.9452 64.975 30.9328 65.0884 30.9318 65.1967C30.9215 66.4241 32.0568 67.2248 33.5787 67.9728C33.7091 68.0371 33.8419 68.1004 33.9773 68.1646C34.166 68.252 34.3595 68.3401 34.5554 68.4291C34.7245 68.505 34.8955 68.5809 35.0676 68.6577C35.3462 68.7809 35.6278 68.9068 35.9114 69.0354C36.0588 69.1017 36.2051 69.17 36.3514 69.2391C37.3761 69.7193 38.3864 70.2546 39.2202 70.926C40.8499 72.2378 41.8077 74.069 40.8896 77.0246Z" fill="url(#paint8_linear_1_1899)"/>
<path d="M45.1311 81.7536V96.2616C45.1311 96.8628 44.6 97.3833 43.9359 97.4243L27.6209 98.4303C26.9352 98.4727 26.3519 98.0101 26.3519 97.3982V82.6328C26.3519 82.021 26.9385 81.5001 27.6242 81.4687L43.9193 80.721C44.5834 80.6906 45.1311 81.1524 45.1311 81.7536Z" fill="url(#paint9_linear_1_1899)"/>
<g opacity="0.7">
<path opacity="0.7" d="M33.442 86.1903C32.8674 86.225 32.3949 86.7267 32.3949 87.3108V92.0931C32.3949 92.6772 32.8673 93.1183 33.442 93.0782C34.0157 93.0381 34.4863 92.5335 34.4863 91.951V87.1822C34.4863 86.5997 34.0157 86.1556 33.442 86.1903Z" fill="white"/>
<path opacity="0.7" d="M31.3626 87.3255L31.3711 87.3267C30.9721 87.3514 30.6674 87.6999 30.6674 88.1042V89.3079L30.5065 89.3214C30.261 89.3372 30.0946 89.5526 30.0946 89.801V89.8241C30.0946 90.0726 30.261 90.2597 30.5065 90.2436L30.6674 90.2297V91.5256C30.6674 91.93 30.9898 92.2355 31.3887 92.2081L31.3633 92.2059C31.7618 92.1786 32.0483 91.828 32.0483 91.4245V88.0104C32.0483 87.6069 31.7611 87.3009 31.3626 87.3255Z" fill="white"/>
<path opacity="0.7" d="M38.6747 85.8765C38.1082 85.9108 37.6616 86.4087 37.6616 86.9887V91.7373C37.6616 92.3172 38.1083 92.7549 38.6747 92.7153C39.2403 92.6757 39.6847 92.1746 39.6847 91.5963V86.8617C39.6847 86.2835 39.2403 85.8424 38.6747 85.8765Z" fill="white"/>
<path opacity="0.7" d="M41.4847 88.6056L41.3648 88.6201V87.4341C41.3648 87.0356 41.0404 86.7316 40.652 86.7556L40.6351 86.756C40.2462 86.78 39.924 87.1228 39.924 87.522V90.8999C39.924 91.2991 40.2413 91.6011 40.6302 91.5745L40.6511 91.5743C41.0396 91.5477 41.3649 91.2037 41.3649 90.8053V89.5284L41.4847 89.5136C41.7226 89.4979 41.8472 89.2847 41.8472 89.0405V89.0177C41.8472 88.7734 41.7226 88.5902 41.4847 88.6056Z" fill="white"/>
<path opacity="0.7" d="M34.72 90.2353L37.4248 90.0579V88.6879L34.72 88.8604V90.2353Z" fill="white"/>
</g>
<path opacity="0.3" d="M41.531 97.5738L27.6242 98.4304C26.9385 98.4728 26.3519 98.0101 26.3519 97.3982V82.6328C26.3519 82.021 26.9385 81.5002 27.6242 81.4687L31.08 81.311C31.6866 82.5688 31.9478 84.0747 31.6637 85.7544C31.5888 86.2 31.6594 86.5898 31.8379 86.9379C32.209 87.6624 33.0651 88.2088 34.1262 88.7166C34.2263 88.7644 34.3304 88.8121 34.4335 88.8597C35.3034 89.2565 36.2852 89.6382 37.2424 90.0734C37.3926 90.142 37.5421 90.2115 37.6902 90.282C38.5315 90.6849 39.3381 91.1392 40.0142 91.6929C41.543 92.9455 42.4134 94.7128 41.531 97.5738Z" fill="url(#paint10_linear_1_1899)"/>
<path d="M23.9482 38.867L25.411 39.1595C25.411 39.1595 33.0902 48.9597 31.9931 52.6896C30.8961 56.4195 25.411 53.5672 25.411 53.5672L23.9482 38.867Z" fill="url(#paint11_linear_1_1899)"/>
<path d="M14.3106 108.645C14.0638 108.845 14.0184 109.346 13.9888 109.674C13.9755 109.82 13.9689 109.893 13.9853 109.945C14.1045 110.322 14.8354 110.361 15.9816 110.478C17.7929 110.663 18.332 110.806 18.4737 110.536C18.6066 110.284 18.2851 109.87 18.2489 109.825C18.0542 109.579 17.8154 109.49 17.3535 109.338C16.499 109.057 15.9216 108.903 15.7468 108.856C14.6551 108.565 14.4728 108.513 14.3106 108.645Z" fill="url(#paint12_linear_1_1899)"/>
<path d="M15.3878 106.99L15.5691 109.054C15.5176 109.154 14.9041 109.453 14.4168 109.196L13.951 107.167L15.3878 106.99Z" fill="url(#paint13_linear_1_1899)"/>
<path d="M29.1211 107C28.8253 107.327 28.758 107.929 29.0151 108.225C29.268 108.516 29.6481 108.298 30.7263 108.33C31.8813 108.364 32.1829 108.637 32.9677 108.421C33.2848 108.333 33.8448 108.12 33.8341 107.894C33.8267 107.735 33.5416 107.653 32.5894 107.334C31.2377 106.881 31.2437 106.856 30.9567 106.809C30.2357 106.689 29.5118 106.569 29.1211 107Z" fill="url(#paint14_linear_1_1899)"/>
<path d="M29.8611 105.117L30.4404 107.044C30.3966 107.147 29.8077 107.492 29.3024 107.273L28.442 105.403L29.8611 105.117Z" fill="url(#paint15_linear_1_1899)"/>
<path d="M24.7142 62.9149C24.7972 69.3908 25.2391 76.672 26.2994 84.5827C27.3473 92.4012 28.8159 99.4656 30.4179 105.678C29.6788 105.877 28.9397 106.075 28.2007 106.274C26.3256 104.526 23.9603 101.774 22.8189 97.8842C22.1105 95.4702 22.3466 94.2297 21.8972 91.2605C21.1818 86.5329 19.7326 84.0561 18.2348 80.2439C16.8889 76.8182 15.2978 71.7905 14.4448 65.0702C17.868 64.3518 21.2911 63.6334 24.7142 62.9149Z" fill="url(#paint16_linear_1_1899)"/>
<path opacity="0.3" d="M25.2648 94.011C24.523 91.962 23.62 91.3309 23.217 89.1841C22.8654 87.3115 23.3481 86.7032 23.3632 84.796C23.3934 80.9952 21.5056 79.7362 20.8766 76.6048C20.5357 74.9073 22.7653 70.621 24.8106 66.9179C24.7629 65.5525 24.7308 64.2167 24.7141 62.9151C21.2911 63.6335 17.8679 64.3519 14.4448 65.0703C15.2978 71.7906 16.8889 76.8182 18.2348 80.244C19.7326 84.0562 21.1818 86.5331 21.8973 91.2606C22.3466 94.2298 22.1105 95.4703 22.8189 97.8843C23.9603 101.774 26.3256 104.526 28.2007 106.274C28.2705 106.256 28.3403 106.237 28.4101 106.218C26.52 103.754 25.9331 101.662 25.8498 100.008C25.7638 98.2985 26.1915 96.571 25.2648 94.011Z" fill="url(#paint17_linear_1_1899)"/>
<path d="M17.597 63.676C17.1447 71.9121 16.7726 80.3015 16.4907 88.8395C16.2791 95.2465 16.1237 101.572 16.0205 107.815C15.2655 107.908 14.5105 108.001 13.7556 108.094C13.0261 106.736 12.0572 104.66 11.3934 101.998C10.5873 98.7657 10.774 96.8461 10.4204 93.496C10.0237 89.7386 9.44759 88.92 8.4269 84.1801C6.35529 74.5606 5.31945 69.7508 7.63033 66.7588C8.38045 65.7875 10.7322 63.351 17.597 63.676Z" fill="url(#paint18_linear_1_1899)"/>
<path d="M7.14195 39.1191C9.09474 38.57 11.9567 37.9278 15.4617 37.7296C20.6297 37.4375 23.2146 37.3083 24.7316 38.4963C29.4367 42.1808 24.9778 55.3504 26.6544 62.2703C28.0651 68.0928 28.1171 68.1943 28.1171 68.1943C28.4505 68.8452 28.991 69.7497 28.7753 70.8271C28.6057 71.6745 27.9645 72.6483 27.0932 72.948C25.2827 73.571 24.2448 70.6761 21.2424 69.8032C18.104 68.8908 14.5926 70.7034 10.1526 72.9954C7.327 74.454 6.36214 75.3843 5.37206 74.9226C3.46552 74.0337 3.9891 69.1602 4.20191 67.1703C5.04741 59.2632 5.99911 50.0054 7.14195 39.1191Z" fill="url(#paint19_linear_1_1899)"/>
<path d="M20.1087 52.5434C19.972 52.5128 19.7286 51.6039 20.3281 51.3366C23.0341 50.1299 25.1282 52.5191 25.4082 53.2542C25.6882 53.9894 25.6882 53.9894 25.6882 53.9894C25.6882 53.9894 24.3444 54.0944 23.511 53.8144C22.6776 53.5343 21.2199 52.7911 20.1087 52.5434Z" fill="url(#paint20_linear_1_1899)"/>
<path d="M27.5021 55.9652L22.7413 56.2054C22.559 56.2145 22.3411 55.9888 22.386 55.8351L24.6099 48.6385C24.6449 48.5189 24.7667 48.439 24.9022 48.4465L29.4679 48.5466C29.6167 48.5553 29.6982 48.8483 29.6577 48.9931L27.7659 55.7602C27.7348 55.8717 27.6224 55.9592 27.5021 55.9652Z" fill="url(#paint21_linear_1_1899)"/>
<path d="M27.4166 55.8118L22.6296 56.0364C22.4462 56.045 22.3196 55.9137 22.3646 55.7598L24.5029 48.4389C24.538 48.3188 24.6605 48.239 24.7968 48.2471L29.3689 48.5175C29.5184 48.5263 29.6191 48.6702 29.5785 48.8156L27.6817 55.6067C27.6505 55.7186 27.5375 55.8062 27.4166 55.8118Z" fill="url(#paint22_linear_1_1899)"/>
<path opacity="0.3" d="M24.9993 51.4475C25.1411 52.1133 25.7399 51.9699 26.2284 52.7758C26.8486 53.7988 26.2542 54.7021 26.8227 55.0768C26.9962 55.1911 27.2894 55.2598 27.8168 55.1219L27.6811 55.6077C27.6499 55.7196 27.5369 55.8071 27.416 55.8127L22.629 56.0374C22.4456 56.046 22.319 55.9147 22.364 55.7608L24.5023 48.4399C24.5374 48.3198 24.6598 48.24 24.7962 48.2481L25.483 48.2887C25.5637 48.5403 25.6214 48.8306 25.6151 49.1522C25.5935 50.2561 24.8333 50.6677 24.9993 51.4475Z" fill="url(#paint23_linear_1_1899)"/>
<path d="M29.5974 50.9091C29.6242 50.794 29.5674 50.6754 29.4818 50.6693C29.1334 50.6441 28.3254 50.6339 27.8793 51.0203C27.2999 51.5223 26.5507 52.4384 27.1817 52.9006L27.7708 53.3324C27.7979 53.3522 27.8273 53.3584 27.857 53.3492C28.0664 53.284 28.9476 53.0076 29.0439 52.9389C29.1316 52.8764 29.4676 51.4662 29.5974 50.9091Z" fill="url(#paint24_linear_1_1899)"/>
<path opacity="0.3" d="M25.6304 70.1689C25.1198 69.2839 25.1413 67.9472 24.0214 67.3166C23.3685 66.949 22.8595 67.1209 21.9737 67.0972C19.3329 67.0268 18.8273 65.3654 17.0005 65.2689C14.1712 65.1193 12.8122 68.9681 11.2228 68.4137C10.1853 68.0517 9.51714 65.9764 10.0526 64.3912C10.799 62.1814 13.3571 62.484 16.7079 59.4911C18.1414 58.2108 20.198 55.9003 19.6333 54.8836C19.0401 53.8157 16.2256 55.3827 14.1482 53.7866C12.936 52.8552 13.0907 51.7043 12.1004 49.6178C11.5637 48.4873 9.59868 45.5477 6.67609 43.5659C5.73658 52.5521 4.92966 60.3633 4.20179 67.1703C3.98897 69.1602 3.4654 74.0337 5.37194 74.9226C6.36202 75.3843 7.32691 74.454 10.1525 72.9953C14.5925 70.7034 18.1039 68.8908 21.2423 69.8032C24.2447 70.6761 25.2826 73.571 27.0931 72.948C27.6586 72.7535 28.1244 72.2739 28.4301 71.7302C26.8153 71.4398 26.0151 70.8357 25.6304 70.1689Z" fill="url(#paint25_linear_1_1899)"/>
<path d="M18.0974 33.7963C18.1007 34.1893 17.1236 36.1576 15.8059 37.1118C14.4761 38.0746 12.8033 38.0222 12.3049 38.1459C11.1492 38.4323 11.0005 38.4246 10.975 38.5392C10.8505 39.0987 14.0018 41.0055 17.2575 40.5459C19.2501 40.2646 21.063 39.1278 20.9517 38.5309C20.8397 37.9301 18.8494 38.2525 18.2561 37.1656C17.8434 36.4095 18.306 35.3361 18.8528 34.4471C18.3233 33.4548 18.627 34.7886 18.0974 33.7963Z" fill="url(#paint26_linear_1_1899)"/>
<path d="M21.5946 34.7061C22.2871 34.343 22.7803 33.3699 22.5859 32.515C22.4185 31.7792 21.7917 31.3886 21.4165 31.1545C20.3291 30.4766 18.6501 30.269 17.6435 31.0884C17.047 31.5741 17.0763 33.1844 17.0665 33.4668C17.0557 33.7862 17.2207 33.9757 17.3182 34.2673C17.4532 34.6716 17.6614 35.3113 17.9928 36.3733C18.1491 36.1803 18.3575 35.9485 18.6241 35.7166C18.7267 35.6272 19.1329 35.2811 19.605 35.0582C20.551 34.6112 20.9383 35.0502 21.5946 34.7061Z" fill="url(#paint27_linear_1_1899)"/>
<path d="M17.3151 35.2911C17.3151 35.2911 17.4833 36.8901 19.0354 37.5057C20.425 38.0568 22.0551 35.1272 21.4981 34.0777C21.3123 33.7275 20.7791 33.366 20.2492 33.2754C19.9362 33.2219 19.7882 33.2924 19.2785 33.1949C18.8083 33.1052 18.7121 33.0027 18.5353 33.0491C18.3142 33.1073 18.0438 33.3786 17.889 34.3875C17.7551 34.0052 17.4938 33.7589 17.2261 33.7585C17.1834 33.7586 17.061 33.7776 16.9637 33.8483C16.6116 34.1043 16.718 34.6948 17.3151 35.2911Z" fill="url(#paint28_linear_1_1899)"/>
<path d="M18.56 32.8394C18.602 32.9187 18.2883 33.0671 18.1108 33.4034C17.7662 34.0561 18.0616 35.1756 18.7176 35.5695C19.1054 35.8024 19.3334 35.6102 20.0396 35.8578C20.4768 36.0112 20.7983 36.2284 20.9938 36.3794C20.8587 37.2104 20.3146 37.8448 19.6659 37.9514C18.9675 38.0661 18.4003 37.5269 18.1632 37.3015C18.0046 37.1507 17.4957 36.6687 17.4427 35.9674C17.3874 35.2366 17.8736 35.0422 17.6818 34.4749C17.5852 34.1887 17.3762 33.9855 17.3137 33.4905C17.2968 33.356 17.2961 33.2439 17.2983 33.1697C17.8208 32.9659 18.4991 32.7246 18.56 32.8394Z" fill="url(#paint29_linear_1_1899)"/>
<path d="M11.1496 41.3536C10.3606 40.1568 8.79047 38.9822 7.34661 39.0864C3.1298 39.3908 -2.06819 50.7501 1.49579 55.2493C4.21638 58.6838 12.621 58.8505 20.2915 52.909C20.2915 52.2508 20.2915 51.5926 20.2915 50.9343C16.517 51.5945 13.3879 52.0329 11.0765 52.3239C9.63502 52.5055 8.19898 52.6691 7.9317 52.1045C7.52728 51.2502 10.4146 50.0282 11.5153 46.8388C11.667 46.3992 12.6323 43.6025 11.1496 41.3536Z" fill="url(#paint30_linear_1_1899)"/>
<path d="M51.5483 82.783C51.5483 87.1214 48.1559 90.5342 43.8201 90.4011C39.3077 90.2625 35.5127 86.3655 35.5127 81.7019C35.5127 77.0384 39.3077 73.653 43.8201 74.1229C48.1559 74.5744 51.5483 78.4446 51.5483 82.783Z" fill="url(#paint31_linear_1_1899)"/>
<path d="M52.7199 82.409C52.7199 86.7474 49.3275 90.1602 44.9917 90.027C40.4794 89.8885 36.6843 85.9914 36.6843 81.3279C36.6843 76.6643 40.4794 73.279 44.9917 73.7488C49.3275 74.2003 52.7199 78.0705 52.7199 82.409Z" fill="url(#paint32_linear_1_1899)"/>
<path d="M52.3796 82.386C52.3796 86.5334 49.1337 89.7904 44.9917 89.6562C40.6889 89.5169 37.0763 85.7978 37.0763 81.3543C37.0763 76.9108 40.6889 73.6787 44.9917 74.1196C49.1337 74.5439 52.3796 78.2386 52.3796 82.386Z" fill="url(#paint33_linear_1_1899)"/>
<path d="M52.1359 82.3696C52.1359 86.3801 48.995 89.5259 44.9917 89.3915C40.8384 89.252 37.3555 85.6599 37.3555 81.3731C37.3555 77.0864 40.8384 73.9639 44.9917 74.3844C48.995 74.7898 52.1359 78.3591 52.1359 82.3696Z" fill="url(#paint34_linear_1_1899)"/>
<path d="M44.9507 75.7488C45.1637 75.769 45.3361 75.9608 45.3361 76.1772V76.9156C45.7621 76.9632 46.1887 77.0372 46.6159 77.1376C46.9309 77.2116 47.2437 77.2998 47.5545 77.4019C47.7407 77.4632 47.8676 77.6512 47.8486 77.8451L47.7579 78.771C47.7338 79.0167 47.491 79.1609 47.2623 79.059C47.0577 78.9677 46.8478 78.8896 46.6327 78.8245C46.2573 78.7109 45.8615 78.6368 45.445 78.6025L45.3361 78.5936V80.7083C46.4474 81.0192 47.2636 81.4375 47.791 81.9636C48.3159 82.4872 48.5774 83.1397 48.5774 83.9231C48.5774 84.7703 48.2883 85.4486 47.7077 85.9602C47.1241 86.4746 46.3057 86.7639 45.2475 86.8265V87.6415C45.2475 87.8579 45.075 88.0265 44.8617 88.018L44.8549 88.0178C44.6412 88.0092 44.4677 87.8263 44.4677 87.6091V86.8052L44.296 86.7974C43.7999 86.775 43.3247 86.7244 42.8707 86.6455C42.5344 86.587 42.2061 86.5115 41.8857 86.4189C41.692 86.363 41.559 86.1784 41.5768 85.9801L41.6835 84.7899C41.7065 84.5326 41.965 84.3828 42.2097 84.4793C42.4949 84.5918 42.7836 84.6866 43.0759 84.7637C43.5314 84.8838 43.9931 84.9608 44.4608 84.995L44.4677 82.6427C43.4009 82.3788 42.6023 81.9878 42.0776 81.4699C41.5504 80.9497 41.2859 80.2838 41.2859 79.4742C41.2859 78.6364 41.5727 77.9897 42.1442 77.5358C42.7127 77.0842 43.521 76.8595 44.5637 76.8601V76.1052C44.5638 75.888 44.7372 75.7285 44.9507 75.7488ZM44.5638 78.5716C44.2342 78.5956 43.9771 78.6861 43.7931 78.8434C43.6087 79.0008 43.5165 79.2125 43.5165 79.4781C43.5165 79.7298 43.6019 79.9401 43.7723 80.109C43.9426 80.2776 44.2067 80.4122 44.5638 80.5128V78.5716ZM45.2475 82.8312V84.9883C45.6059 84.989 45.8808 84.9035 46.0726 84.7318C46.2641 84.5605 46.3597 84.3186 46.3597 84.0057C46.3597 83.7204 46.2708 83.4838 46.0929 83.2957C45.9146 83.1073 45.6331 82.9525 45.2475 82.8312Z" fill="url(#paint35_linear_1_1899)"/>
<path opacity="0.3" d="M43.6989 83.3517C43.9403 80.9677 46.1313 79.9585 45.8454 77.7656C45.6691 76.414 44.6447 75.275 43.5019 74.3856C40.0358 74.7492 37.3555 77.6192 37.3555 81.3731C37.3555 85.6599 40.8384 89.252 44.9918 89.3914C45.395 89.405 45.7889 89.384 46.1718 89.3338C44.5223 87.6924 43.4916 85.3998 43.6989 83.3517Z" fill="url(#paint36_linear_1_1899)"/>
<path d="M81.9958 79.5561C81.9958 87.1852 76.0302 93.1866 68.4057 92.9525C60.4708 92.7088 53.7972 85.8559 53.7972 77.655C53.7972 69.4542 60.4708 63.501 68.4057 64.3273C76.0302 65.1212 81.9958 71.927 81.9958 79.5561Z" fill="url(#paint37_linear_1_1899)"/>
<path d="M84.0561 78.8982C84.0561 86.5273 78.0906 92.5287 70.466 92.2946C62.5311 92.0509 55.8575 85.198 55.8575 76.9972C55.8575 68.7964 62.5311 62.8432 70.466 63.6694C78.0906 64.4634 84.0561 71.2691 84.0561 78.8982Z" fill="url(#paint38_linear_1_1899)"/>
<path d="M83.4577 78.8578C83.4577 86.151 77.7498 91.8785 70.466 91.6426C62.8996 91.3976 56.5468 84.8575 56.5468 77.0436C56.5468 69.2297 62.8996 63.5462 70.466 64.3214C77.7498 65.0677 83.4577 71.5647 83.4577 78.8578Z" fill="url(#paint39_linear_1_1899)"/>
<path d="M83.029 78.829C83.029 85.8815 77.5059 91.4133 70.466 91.1769C63.1624 90.9317 57.0376 84.615 57.0376 77.0767C57.0376 69.5384 63.1623 64.0475 70.466 64.7871C77.5059 65.5 83.029 71.7765 83.029 78.829Z" fill="url(#paint40_linear_1_1899)"/>
<path d="M70.3939 67.1864C70.7686 67.222 71.0718 67.5593 71.0718 67.9397V69.2382C71.8208 69.3219 72.571 69.4521 73.3222 69.6286C73.8761 69.7588 74.4263 69.9138 74.9728 70.0934C75.3002 70.2011 75.5233 70.5317 75.4899 70.8726L75.3304 72.5009C75.2881 72.9329 74.8611 73.1866 74.4591 73.0073C74.0991 72.8468 73.73 72.7093 73.3518 72.5948C72.6917 72.3951 71.9957 72.2649 71.2632 72.2045L71.0718 72.1888V75.9075C73.026 76.4542 74.4612 77.1898 75.3887 78.1149C76.3118 79.0357 76.7717 80.1832 76.7717 81.5608C76.7717 83.0505 76.2633 84.2434 75.2423 85.1431C74.2159 86.0475 72.7769 86.5563 70.916 86.6664V88.0995C70.916 88.4801 70.6126 88.7766 70.2376 88.7617L70.2256 88.7612C69.8499 88.7463 69.5448 88.4246 69.5448 88.0426V86.6289L69.2428 86.6153C68.3705 86.5759 67.5348 86.4869 66.7364 86.348C66.1452 86.2452 65.5678 86.1125 65.0044 85.9497C64.6637 85.8513 64.4299 85.5267 64.4611 85.178L64.6488 83.0849C64.6893 82.6325 65.1438 82.3692 65.5741 82.5389C66.0756 82.7367 66.5833 82.9034 67.0974 83.0389C67.8983 83.2501 68.7102 83.3856 69.5327 83.4457L69.5448 79.3093C67.6689 78.845 66.2645 78.1575 65.3418 77.2469C64.4147 76.332 63.9496 75.1611 63.9496 73.7374C63.9496 72.2641 64.4539 71.1269 65.4589 70.3287C66.4587 69.5346 67.8801 69.1395 69.7137 69.1406V67.8131C69.7137 67.4312 70.0185 67.1507 70.3939 67.1864ZM69.7137 72.1503C69.134 72.1925 68.6819 72.3517 68.3583 72.6282C68.0342 72.9051 67.8719 73.2773 67.8719 73.7444C67.8719 74.1869 68.022 74.5569 68.3218 74.8538C68.6212 75.1502 69.0855 75.387 69.7137 75.5639V72.1503H69.7137ZM70.9159 79.6407V83.4341C71.5462 83.4353 72.0295 83.2848 72.3669 82.983C72.7036 82.6818 72.8718 82.2563 72.8718 81.7061C72.8718 81.2045 72.7155 80.7885 72.4025 80.4576C72.0891 80.1263 71.594 79.854 70.9159 79.6407Z" fill="url(#paint41_linear_1_1899)"/>
<path opacity="0.3" d="M68.1926 80.5561C68.617 76.3638 72.4699 74.5891 71.9671 70.7329C71.6571 68.3562 69.8557 66.3532 67.8462 64.7892C61.7509 65.4285 57.0376 70.4755 57.0376 77.0767C57.0376 84.6151 63.1623 90.9317 70.466 91.177C71.1751 91.2007 71.8677 91.1639 72.5411 91.0756C69.6405 88.1893 67.8279 84.1577 68.1926 80.5561Z" fill="url(#paint42_linear_1_1899)"/>
<path d="M101.977 49.9633C101.977 61.0243 93.3282 69.7255 82.2737 69.386C70.7692 69.0327 61.0936 59.0969 61.0936 47.207C61.0936 35.3171 70.7692 26.6859 82.2737 27.8838C93.3282 29.0349 101.977 38.9022 101.977 49.9633Z" fill="url(#paint43_linear_1_1899)"/>
<path d="M104.964 49.0095C104.964 60.0706 96.3152 68.7717 85.2608 68.4323C73.7563 68.079 64.0807 58.1432 64.0807 46.2533C64.0807 34.3633 73.7563 25.7322 85.2608 26.9301C96.3153 28.0811 104.964 37.9485 104.964 49.0095Z" fill="url(#paint44_linear_1_1899)"/>
<path d="M104.097 48.951C104.097 59.525 95.8212 67.829 85.2608 67.487C74.2906 67.1318 65.08 57.6496 65.08 46.3206C65.08 34.9917 74.2906 26.7514 85.2608 27.8754C95.8212 28.9573 104.097 38.3771 104.097 48.951Z" fill="url(#paint45_linear_1_1899)"/>
<path d="M103.475 48.9091C103.475 59.1343 95.4677 67.1545 85.2609 66.8118C74.6716 66.4563 65.7917 57.2981 65.7917 46.3686C65.7917 35.4392 74.6716 27.4783 85.2609 28.5506C95.4677 29.5841 103.475 38.684 103.475 48.9091Z" fill="url(#paint46_linear_1_1899)"/>
<path d="M85.1563 32.0292C85.6995 32.0808 86.1391 32.5698 86.1391 33.1214V35.004C87.2251 35.1253 88.3127 35.3141 89.4019 35.5701C90.205 35.7588 91.0026 35.9834 91.7949 36.2439C92.2696 36.4 92.5931 36.8793 92.5447 37.3737L92.3135 39.7344C92.2521 40.3608 91.6331 40.7285 91.0501 40.4687C90.5283 40.236 89.9932 40.0366 89.4448 39.8706C88.4879 39.5811 87.4787 39.3923 86.4168 39.3048L86.1391 39.2819V44.6734C88.9725 45.4661 91.0533 46.5326 92.3981 47.8739C93.7364 49.2089 94.4031 50.8726 94.4031 52.8698C94.4031 55.0297 93.6659 56.7593 92.1857 58.0636C90.6976 59.3749 88.6112 60.1125 85.9133 60.2721V62.35C85.9133 62.9019 85.4734 63.3317 84.9297 63.3101L84.9123 63.3094C84.3676 63.2878 83.9253 62.8213 83.9253 62.2675V60.2178L83.4874 60.198C82.2226 60.1409 81.0111 60.0119 79.8536 59.8106C78.9964 59.6614 78.1592 59.469 77.3425 59.233C76.8484 59.0903 76.5093 58.6198 76.5547 58.1142L76.8267 55.0796C76.8855 54.4235 77.5445 54.0418 78.1683 54.2879C78.8954 54.5747 79.6316 54.8163 80.3768 55.0128C81.538 55.319 82.7151 55.5155 83.9077 55.6027L83.9252 49.6053C81.2055 48.9324 79.1692 47.9356 77.8315 46.6153C76.4874 45.2888 75.813 43.5911 75.813 41.527C75.813 39.391 76.5442 37.7421 78.0013 36.585C79.4509 35.4336 81.5116 34.8609 84.1701 34.8623V32.9376C84.1701 32.3841 84.6121 31.9774 85.1563 32.0292ZM84.1701 39.226C83.3295 39.2872 82.674 39.5181 82.2049 39.9189C81.735 40.3204 81.4998 40.86 81.4998 41.5373C81.4998 42.1789 81.7174 42.7152 82.1521 43.1457C82.5862 43.5755 83.2594 43.9187 84.1701 44.1751V39.226ZM85.9132 50.086V55.5858C86.827 55.5876 87.5277 55.3694 88.0168 54.9319C88.5051 54.4951 88.7489 53.8782 88.7489 53.0806C88.7489 52.3533 88.5223 51.7502 88.0685 51.2705C87.614 50.7901 86.8963 50.3953 85.9132 50.086Z" fill="url(#paint47_linear_1_1899)"/>
<path opacity="0.3" d="M81.9646 51.4131C82.58 45.335 88.1661 42.7619 87.4371 37.171C86.9877 33.7251 84.376 30.8211 81.4625 28.5537C72.6252 29.4805 65.7916 36.7979 65.7916 46.3687C65.7916 57.2981 74.6715 66.4563 85.2607 66.8118C86.2889 66.8463 87.293 66.7929 88.2694 66.6649C84.064 62.4802 81.436 56.635 81.9646 51.4131Z" fill="url(#paint48_linear_1_1899)"/>
<path d="M46.9639 43.4935C51.5126 43.4935 55.2001 40.5581 55.2001 36.9371C55.2001 33.3161 51.5126 30.3807 46.9639 30.3807C42.4152 30.3807 38.7278 33.3161 38.7278 36.9371C38.7278 40.5581 42.4152 43.4935 46.9639 43.4935Z" fill="white"/>
<path d="M44.389 40.0554V33.8188C44.389 33.4184 44.7249 33.155 45.0154 33.3275L50.2699 36.4458C50.6022 36.643 50.6022 37.2312 50.2699 37.4284L45.0154 40.5467C44.7248 40.7191 44.389 40.4557 44.389 40.0554Z" fill="url(#paint49_linear_1_1899)"/>
<g opacity="0.3">
<path opacity="0.3" d="M48.9636 41.8235C47.97 39.8873 48.9745 38.0773 47.6311 36.826C46.2663 35.5548 44.4929 36.7366 42.5843 35.7015C41.8464 35.3014 41.026 34.5357 40.4161 32.9595C39.357 34.0627 38.7278 35.4414 38.7278 36.9371C38.7278 40.5581 42.4152 43.4935 46.9639 43.4935C48.0059 43.4935 49.0028 43.3393 49.9204 43.0583C49.4679 42.6461 49.1683 42.2225 48.9636 41.8235Z" fill="url(#paint50_linear_1_1899)"/>
</g>
<defs>
<linearGradient id="paint0_linear_1_1899" x1="50.2455" y1="54.4391" x2="100.299" y2="54.4391" gradientUnits="userSpaceOnUse">
<stop stop-color="#AA80F9"/>
<stop offset="0.9964" stop-color="#6165D7"/>
</linearGradient>
<linearGradient id="paint1_linear_1_1899" x1="105.033" y1="198.038" x2="100.964" y2="180.085" gradientUnits="userSpaceOnUse">
<stop offset="0.0036" stop-color="#E38DDD"/>
<stop offset="1" stop-color="#9571F6"/>
</linearGradient>
<linearGradient id="paint2_linear_1_1899" x1="47.789" y1="82.31" x2="106.036" y2="90.8336" gradientUnits="userSpaceOnUse">
<stop stop-color="#FF9085"/>
<stop offset="1" stop-color="#FB6FBB"/>
</linearGradient>
<linearGradient id="paint3_linear_1_1899" x1="80.2094" y1="87.4996" x2="37.1724" y2="50.7871" gradientUnits="userSpaceOnUse">
<stop stop-color="#444B8C"/>
<stop offset="0.9964" stop-color="#26264F"/>
</linearGradient>
<linearGradient id="paint4_linear_1_1899" x1="44.6819" y1="101.156" x2="50.6466" y2="-59.1886" gradientUnits="userSpaceOnUse">
<stop stop-color="#444B8C"/>
<stop offset="0.9964" stop-color="#26264F"/>
</linearGradient>
<linearGradient id="paint5_linear_1_1899" x1="26.3519" y1="36.6984" x2="66.9442" y2="36.6984" gradientUnits="userSpaceOnUse">
<stop stop-color="#FF9085"/>
<stop offset="1" stop-color="#FB6FBB"/>
</linearGradient>
<linearGradient id="paint6_linear_1_1899" x1="48.686" y1="68.1296" x2="63.8933" y2="68.1296" gradientUnits="userSpaceOnUse">
<stop stop-color="#AA80F9"/>
<stop offset="0.9964" stop-color="#6165D7"/>
</linearGradient>
<linearGradient id="paint7_linear_1_1899" x1="26.3529" y1="68.7535" x2="45.1321" y2="68.7535" gradientUnits="userSpaceOnUse">
<stop offset="0.0036" stop-color="#E38DDD"/>
<stop offset="1" stop-color="#9571F6"/>
</linearGradient>
<linearGradient id="paint8_linear_1_1899" x1="40.6022" y1="54.9875" x2="19.7534" y2="97.3896" gradientUnits="userSpaceOnUse">
<stop stop-color="#AA80F9"/>
<stop offset="0.9964" stop-color="#6165D7"/>
</linearGradient>
<linearGradient id="paint9_linear_1_1899" x1="54.8239" y1="64.1414" x2="5.70579" y2="129.302" gradientUnits="userSpaceOnUse">
<stop stop-color="#AA80F9"/>
<stop offset="0.9964" stop-color="#6165D7"/>
</linearGradient>
<linearGradient id="paint10_linear_1_1899" x1="41.0114" y1="75.611" x2="19.8016" y2="118.747" gradientUnits="userSpaceOnUse">
<stop stop-color="#AA80F9"/>
<stop offset="0.9964" stop-color="#6165D7"/>
</linearGradient>
<linearGradient id="paint11_linear_1_1899" x1="24.3496" y1="49.9171" x2="28.2691" y2="45.6882" gradientUnits="userSpaceOnUse">
<stop stop-color="#AA80F9"/>
<stop offset="0.9964" stop-color="#6165D7"/>
</linearGradient>
<linearGradient id="paint12_linear_1_1899" x1="18.482" y1="109.568" x2="13.9706" y2="109.698" gradientUnits="userSpaceOnUse">
<stop stop-color="#444B8C"/>
<stop offset="0.9964" stop-color="#26264F"/>
</linearGradient>
<linearGradient id="paint13_linear_1_1899" x1="15.8948" y1="109.632" x2="13.4277" y2="105.807" gradientUnits="userSpaceOnUse">
<stop stop-color="#FFC444"/>
<stop offset="0.9964" stop-color="#F36F56"/>
</linearGradient>
<linearGradient id="paint14_linear_1_1899" x1="33.5768" y1="106.947" x2="28.9536" y2="108.218" gradientUnits="userSpaceOnUse">
<stop stop-color="#444B8C"/>
<stop offset="0.9964" stop-color="#26264F"/>
</linearGradient>
<linearGradient id="paint15_linear_1_1899" x1="30.7129" y1="107.685" x2="27.9027" y2="103.983" gradientUnits="userSpaceOnUse">
<stop stop-color="#FFC444"/>
<stop offset="0.9964" stop-color="#F36F56"/>
</linearGradient>
<linearGradient id="paint16_linear_1_1899" x1="32.0019" y1="99.1421" x2="19.213" y2="70.3128" gradientUnits="userSpaceOnUse">
<stop stop-color="#AB316D"/>
<stop offset="1" stop-color="#792D3D"/>
</linearGradient>
<linearGradient id="paint17_linear_1_1899" x1="32.0019" y1="99.1421" x2="19.213" y2="70.3128" gradientUnits="userSpaceOnUse">
<stop stop-color="#AB316D"/>
<stop offset="1" stop-color="#792D3D"/>
</linearGradient>
<linearGradient id="paint18_linear_1_1899" x1="25.2754" y1="101.887" x2="9.05107" y2="74.8408" gradientUnits="userSpaceOnUse">
<stop stop-color="#AB316D"/>
<stop offset="1" stop-color="#792D3D"/>
</linearGradient>
<linearGradient id="paint19_linear_1_1899" x1="7.34202" y1="66.7611" x2="22.1641" y2="50.7689" gradientUnits="userSpaceOnUse">
<stop stop-color="#AA80F9"/>
<stop offset="0.9964" stop-color="#6165D7"/>
</linearGradient>
<linearGradient id="paint20_linear_1_1899" x1="19.9423" y1="52.5053" x2="25.6883" y2="52.5053" gradientUnits="userSpaceOnUse">
<stop stop-color="#FFC444"/>
<stop offset="0.9964" stop-color="#F36F56"/>
</linearGradient>
<linearGradient id="paint21_linear_1_1899" x1="25.099" y1="51.3011" x2="26.9219" y2="53.3541" gradientUnits="userSpaceOnUse">
<stop stop-color="#444B8C"/>
<stop offset="0.9964" stop-color="#26264F"/>
</linearGradient>
<linearGradient id="paint22_linear_1_1899" x1="20.4071" y1="53.3375" x2="28.7123" y2="51.4251" gradientUnits="userSpaceOnUse">
<stop stop-color="#311944"/>
<stop offset="1" stop-color="#893976"/>
</linearGradient>
<linearGradient id="paint23_linear_1_1899" x1="24.8251" y1="56.5678" x2="26.7059" y2="48.5765" gradientUnits="userSpaceOnUse">
<stop stop-color="#311944"/>
<stop offset="1" stop-color="#893976"/>
</linearGradient>
<linearGradient id="paint24_linear_1_1899" x1="26.5058" y1="49.463" x2="30.8178" y2="54.929" gradientUnits="userSpaceOnUse">
<stop stop-color="#FFC444"/>
<stop offset="0.9964" stop-color="#F36F56"/>
</linearGradient>
<linearGradient id="paint25_linear_1_1899" x1="8.32451" y1="67.6718" x2="23.1466" y2="51.6795" gradientUnits="userSpaceOnUse">
<stop stop-color="#AA80F9"/>
<stop offset="0.9964" stop-color="#6165D7"/>
</linearGradient>
<linearGradient id="paint26_linear_1_1899" x1="13.5285" y1="43.6777" x2="19.6329" y2="30.9676" gradientUnits="userSpaceOnUse">
<stop stop-color="#FFC444"/>
<stop offset="0.9964" stop-color="#F36F56"/>
</linearGradient>
<linearGradient id="paint27_linear_1_1899" x1="13.6109" y1="38.6109" x2="21.0916" y2="31.5458" gradientUnits="userSpaceOnUse">
<stop stop-color="#311944"/>
<stop offset="1" stop-color="#6B3976"/>
</linearGradient>
<linearGradient id="paint28_linear_1_1899" x1="19.5384" y1="33.7628" x2="14.2279" y2="46.6819" gradientUnits="userSpaceOnUse">
<stop stop-color="#FFC444"/>
<stop offset="0.9964" stop-color="#F36F56"/>
</linearGradient>
<linearGradient id="paint29_linear_1_1899" x1="14.4586" y1="39.5152" x2="21.9468" y2="32.443" gradientUnits="userSpaceOnUse">
<stop stop-color="#311944"/>
<stop offset="1" stop-color="#6B3976"/>
</linearGradient>
<linearGradient id="paint30_linear_1_1899" x1="9.61756" y1="57.5543" x2="11.7629" y2="39.2217" gradientUnits="userSpaceOnUse">
<stop stop-color="#AA80F9"/>
<stop offset="0.9964" stop-color="#6165D7"/>
</linearGradient>
<linearGradient id="paint31_linear_1_1899" x1="40.7823" y1="83.1223" x2="31.4305" y2="86.1236" gradientUnits="userSpaceOnUse">
<stop stop-color="#FCB148"/>
<stop offset="0.0521" stop-color="#FDBA46"/>
<stop offset="0.1424" stop-color="#FFC244"/>
<stop offset="0.3183" stop-color="#FFC444"/>
<stop offset="0.4849" stop-color="#FDB946"/>
<stop offset="0.7754" stop-color="#F99C4D"/>
<stop offset="0.8658" stop-color="#F8924F"/>
<stop offset="1" stop-color="#F8924F"/>
</linearGradient>
<linearGradient id="paint32_linear_1_1899" x1="48.3474" y1="73.8136" x2="39.9987" y2="92.2324" gradientUnits="userSpaceOnUse">
<stop stop-color="#FFDB44"/>
<stop offset="1" stop-color="#FEEF06"/>
</linearGradient>
<linearGradient id="paint33_linear_1_1899" x1="46.8117" y1="93.2618" x2="45.2008" y2="84.4615" gradientUnits="userSpaceOnUse">
<stop stop-color="#FCB148"/>
<stop offset="0.0521" stop-color="#FDBA46"/>
<stop offset="0.1424" stop-color="#FFC244"/>
<stop offset="0.3183" stop-color="#FFC444"/>
<stop offset="0.4849" stop-color="#FDB946"/>
<stop offset="0.7754" stop-color="#F99C4D"/>
<stop offset="0.8658" stop-color="#F8924F"/>
<stop offset="1" stop-color="#F8924F"/>
</linearGradient>
<linearGradient id="paint34_linear_1_1899" x1="43.3963" y1="79.0176" x2="50.035" y2="93.1103" gradientUnits="userSpaceOnUse">
<stop stop-color="#FCB148"/>
<stop offset="0.0521" stop-color="#FDBA46"/>
<stop offset="0.1424" stop-color="#FFC244"/>
<stop offset="0.3183" stop-color="#FFC444"/>
<stop offset="0.4849" stop-color="#FDB946"/>
<stop offset="0.7754" stop-color="#F99C4D"/>
<stop offset="0.8658" stop-color="#F8924F"/>
<stop offset="1" stop-color="#F8924F"/>
</linearGradient>
<linearGradient id="paint35_linear_1_1899" x1="43.1317" y1="75.985" x2="46.4699" y2="88.4959" gradientUnits="userSpaceOnUse">
<stop stop-color="#FFDB44"/>
<stop offset="1" stop-color="#FEEF06"/>
</linearGradient>
<linearGradient id="paint36_linear_1_1899" x1="41.4432" y1="79.9296" x2="48.0686" y2="93.994" gradientUnits="userSpaceOnUse">
<stop stop-color="#FCB148"/>
<stop offset="0.0521" stop-color="#FDBA46"/>
<stop offset="0.1424" stop-color="#FFC244"/>
<stop offset="0.3183" stop-color="#FFC444"/>
<stop offset="0.4849" stop-color="#FDB946"/>
<stop offset="0.7754" stop-color="#F99C4D"/>
<stop offset="0.8658" stop-color="#F8924F"/>
<stop offset="1" stop-color="#F8924F"/>
</linearGradient>
<linearGradient id="paint37_linear_1_1899" x1="63.0639" y1="80.1528" x2="46.6187" y2="85.4305" gradientUnits="userSpaceOnUse">
<stop stop-color="#FCB148"/>
<stop offset="0.0521" stop-color="#FDBA46"/>
<stop offset="0.1424" stop-color="#FFC244"/>
<stop offset="0.3183" stop-color="#FFC444"/>
<stop offset="0.4849" stop-color="#FDB946"/>
<stop offset="0.7754" stop-color="#F99C4D"/>
<stop offset="0.8658" stop-color="#F8924F"/>
<stop offset="1" stop-color="#F8924F"/>
</linearGradient>
<linearGradient id="paint38_linear_1_1899" x1="76.3672" y1="63.7833" x2="61.686" y2="96.1728" gradientUnits="userSpaceOnUse">
<stop stop-color="#FFDB44"/>
<stop offset="1" stop-color="#FEEF06"/>
</linearGradient>
<linearGradient id="paint39_linear_1_1899" x1="73.6665" y1="97.983" x2="70.8337" y2="82.5077" gradientUnits="userSpaceOnUse">
<stop stop-color="#FCB148"/>
<stop offset="0.0521" stop-color="#FDBA46"/>
<stop offset="0.1424" stop-color="#FFC244"/>
<stop offset="0.3183" stop-color="#FFC444"/>
<stop offset="0.4849" stop-color="#FDB946"/>
<stop offset="0.7754" stop-color="#F99C4D"/>
<stop offset="0.8658" stop-color="#F8924F"/>
<stop offset="1" stop-color="#F8924F"/>
</linearGradient>
<linearGradient id="paint40_linear_1_1899" x1="67.6604" y1="72.9345" x2="79.3346" y2="97.7166" gradientUnits="userSpaceOnUse">
<stop stop-color="#FCB148"/>
<stop offset="0.0521" stop-color="#FDBA46"/>
<stop offset="0.1424" stop-color="#FFC244"/>
<stop offset="0.3183" stop-color="#FFC444"/>
<stop offset="0.4849" stop-color="#FDB946"/>
<stop offset="0.7754" stop-color="#F99C4D"/>
<stop offset="0.8658" stop-color="#F8924F"/>
<stop offset="1" stop-color="#F8924F"/>
</linearGradient>
<linearGradient id="paint41_linear_1_1899" x1="67.1953" y1="67.6017" x2="73.0655" y2="89.6022" gradientUnits="userSpaceOnUse">
<stop stop-color="#FFDB44"/>
<stop offset="1" stop-color="#FEEF06"/>
</linearGradient>
<linearGradient id="paint42_linear_1_1899" x1="64.2259" y1="74.5383" x2="75.8766" y2="99.2704" gradientUnits="userSpaceOnUse">
<stop stop-color="#FCB148"/>
<stop offset="0.0521" stop-color="#FDBA46"/>
<stop offset="0.1424" stop-color="#FFC244"/>
<stop offset="0.3183" stop-color="#FFC444"/>
<stop offset="0.4849" stop-color="#FDB946"/>
<stop offset="0.7754" stop-color="#F99C4D"/>
<stop offset="0.8658" stop-color="#F8924F"/>
<stop offset="1" stop-color="#F8924F"/>
</linearGradient>
<linearGradient id="paint43_linear_1_1899" x1="74.5289" y1="50.8284" x2="50.6859" y2="58.4803" gradientUnits="userSpaceOnUse">
<stop stop-color="#FCB148"/>
<stop offset="0.0521" stop-color="#FDBA46"/>
<stop offset="0.1424" stop-color="#FFC244"/>
<stop offset="0.3183" stop-color="#FFC444"/>
<stop offset="0.4849" stop-color="#FDB946"/>
<stop offset="0.7754" stop-color="#F99C4D"/>
<stop offset="0.8658" stop-color="#F8924F"/>
<stop offset="1" stop-color="#F8924F"/>
</linearGradient>
<linearGradient id="paint44_linear_1_1899" x1="93.8165" y1="27.0952" x2="72.531" y2="74.055" gradientUnits="userSpaceOnUse">
<stop stop-color="#FFDB44"/>
<stop offset="1" stop-color="#FEEF06"/>
</linearGradient>
<linearGradient id="paint45_linear_1_1899" x1="89.901" y1="76.6796" x2="85.7939" y2="54.2427" gradientUnits="userSpaceOnUse">
<stop stop-color="#FCB148"/>
<stop offset="0.0521" stop-color="#FDBA46"/>
<stop offset="0.1424" stop-color="#FFC244"/>
<stop offset="0.3183" stop-color="#FFC444"/>
<stop offset="0.4849" stop-color="#FDB946"/>
<stop offset="0.7754" stop-color="#F99C4D"/>
<stop offset="0.8658" stop-color="#F8924F"/>
<stop offset="1" stop-color="#F8924F"/>
</linearGradient>
<linearGradient id="paint46_linear_1_1899" x1="81.1932" y1="40.363" x2="98.1191" y2="76.2934" gradientUnits="userSpaceOnUse">
<stop stop-color="#FCB148"/>
<stop offset="0.0521" stop-color="#FDBA46"/>
<stop offset="0.1424" stop-color="#FFC244"/>
<stop offset="0.3183" stop-color="#FFC444"/>
<stop offset="0.4849" stop-color="#FDB946"/>
<stop offset="0.7754" stop-color="#F99C4D"/>
<stop offset="0.8658" stop-color="#F8924F"/>
<stop offset="1" stop-color="#F8924F"/>
</linearGradient>
<linearGradient id="paint47_linear_1_1899" x1="80.5189" y1="32.6313" x2="89.0298" y2="64.5287" gradientUnits="userSpaceOnUse">
<stop stop-color="#FFDB44"/>
<stop offset="1" stop-color="#FEEF06"/>
</linearGradient>
<linearGradient id="paint48_linear_1_1899" x1="76.2136" y1="42.6883" x2="93.1053" y2="78.5462" gradientUnits="userSpaceOnUse">
<stop stop-color="#FCB148"/>
<stop offset="0.0521" stop-color="#FDBA46"/>
<stop offset="0.1424" stop-color="#FFC244"/>
<stop offset="0.3183" stop-color="#FFC444"/>
<stop offset="0.4849" stop-color="#FDB946"/>
<stop offset="0.7754" stop-color="#F99C4D"/>
<stop offset="0.8658" stop-color="#F8924F"/>
<stop offset="1" stop-color="#F8924F"/>
</linearGradient>
<linearGradient id="paint49_linear_1_1899" x1="44.389" y1="36.9371" x2="50.5191" y2="36.9371" gradientUnits="userSpaceOnUse">
<stop stop-color="#FCB148"/>
<stop offset="0.0521" stop-color="#FDBA46"/>
<stop offset="0.1424" stop-color="#FFC244"/>
<stop offset="0.3183" stop-color="#FFC444"/>
<stop offset="0.4849" stop-color="#FDB946"/>
<stop offset="0.7754" stop-color="#F99C4D"/>
<stop offset="0.8658" stop-color="#F8924F"/>
<stop offset="1" stop-color="#F8924F"/>
</linearGradient>
<linearGradient id="paint50_linear_1_1899" x1="40.8617" y1="32.6962" x2="51.5542" y2="54.1535" gradientUnits="userSpaceOnUse">
<stop stop-color="#FF9085"/>
<stop offset="1" stop-color="#FB6FBB"/>
</linearGradient>
</defs>
</svg>
