<svg width="26" height="26" viewBox="0 0 26 26" fill="none" xmlns="http://www.w3.org/2000/svg">
<g clip-path="url(#clip0_1_2143)">
<path d="M17.0018 11.8315L11.2578 8.68866C10.9275 8.50795 10.5372 8.5147 10.2134 8.70652C9.88949 8.89853 9.69629 9.23774 9.69629 9.61423V15.846C9.69629 16.2208 9.8883 16.5594 10.21 16.7516C10.3781 16.8519 10.5643 16.9023 10.751 16.9023C10.922 16.9023 11.0934 16.8601 11.2511 16.7752L16.9953 13.6865C17.3363 13.503 17.5491 13.1485 17.5507 12.7611C17.5521 12.3737 17.3418 12.0176 17.0018 11.8315ZM11.2199 15.0621V10.4045L15.5129 12.7535L11.2199 15.0621Z" fill="#04B69A"/>
<path d="M10.5 16L11 10L16.5 13L10.5 16Z" fill="#04B69A"/>
<path d="M25.8087 7.79631L25.8075 7.78441C25.7855 7.57513 25.5663 5.71368 24.6613 4.76689C23.6154 3.65327 22.4296 3.51799 21.8593 3.45312C21.812 3.44777 21.7688 3.44281 21.7301 3.43765L21.6847 3.43289C18.2475 3.18295 13.0565 3.14883 13.0045 3.14864L12.9999 3.14844L12.9954 3.14864C12.9434 3.14883 7.75244 3.18295 4.28425 3.43289L4.23843 3.43765C4.20154 3.44261 4.16087 3.44717 4.11664 3.45233C3.55289 3.5174 2.37977 3.65288 1.33082 4.80676C0.468931 5.74344 0.219787 7.56502 0.194198 7.76973L0.191222 7.79631C0.183486 7.88339 0 9.9565 0 12.0377V13.9833C0 16.0645 0.183486 18.1376 0.191222 18.2249L0.192611 18.238C0.214629 18.4439 0.433623 20.2712 1.33439 21.2184C2.31788 22.2948 3.56142 22.4372 4.2303 22.5137C4.33603 22.5258 4.42708 22.5362 4.48916 22.5471L4.54927 22.5554C6.53389 22.7442 12.7564 22.8373 13.0202 22.841L13.0281 22.8412L13.0361 22.841C13.088 22.8409 18.2788 22.8067 21.716 22.5568L21.7615 22.552C21.8049 22.5463 21.8537 22.5411 21.9073 22.5356C22.4678 22.4761 23.6346 22.3525 24.6691 21.2143C25.531 20.2774 25.7803 18.4558 25.8057 18.2513L25.8087 18.2247C25.8164 18.1374 26.0001 16.0645 26.0001 13.9833V12.0377C25.9999 9.9565 25.8164 7.88359 25.8087 7.79631ZM24.4763 13.9833C24.4763 15.9096 24.3081 17.8934 24.2922 18.0755C24.2275 18.5772 23.9647 19.7297 23.5448 20.1861C22.8973 20.8985 22.2322 20.9691 21.7466 21.0205C21.6879 21.0266 21.6335 21.0326 21.5843 21.0387C18.2598 21.2791 13.2648 21.316 13.0347 21.3174C12.7766 21.3136 6.64518 21.2198 4.72105 21.0411C4.62246 21.025 4.51594 21.0127 4.40367 21C3.83417 20.9348 3.0546 20.8455 2.45514 20.1861L2.44106 20.1711C2.02846 19.7412 1.77317 18.6635 1.70831 18.0815C1.69621 17.9438 1.52363 15.9366 1.52363 13.9833V12.0377C1.52363 10.1136 1.69145 8.13194 1.70771 7.94608C1.78487 7.35515 2.05267 6.27248 2.45514 5.83488C3.12244 5.10094 3.82603 5.01961 4.2914 4.96585C4.33583 4.96069 4.37729 4.95593 4.41557 4.95097C7.78854 4.70937 12.8194 4.67346 12.9999 4.67207C13.1805 4.67326 18.2096 4.70937 21.5526 4.95097C21.5936 4.95613 21.6385 4.96129 21.6867 4.96684C22.1653 5.02139 22.8888 5.10391 23.5527 5.81207L23.5588 5.81862C23.9714 6.24847 24.2267 7.34503 24.2916 7.93874C24.3031 8.06866 24.4763 10.0803 24.4763 12.0377V13.9833Z" fill="#04B69A"/>
</g>
<defs>
<clipPath id="clip0_1_2143">
<rect width="26" height="26" fill="white"/>
</clipPath>
</defs>
</svg>
